<?xml version="1.0" encoding="UTF-8"?>
<svg width="700pt" height="700pt" version="1.1" viewBox="0 0 700 700" xmlns="http://www.w3.org/2000/svg" xmlns:xlink="http://www.w3.org/1999/xlink">
 <defs>
  <symbol id="s" overflow="visible">
   <path d="m2.6094-0.15625c-0.13672 0.074219-0.27734 0.125-0.42188 0.15625-0.14844 0.039062-0.29688 0.0625-0.45312 0.0625-0.48047 0-0.85938-0.12891-1.1406-0.39062-0.27344-0.26953-0.40625-0.63281-0.40625-1.0938 0-0.44531 0.13281-0.80078 0.40625-1.0625 0.28125-0.26953 0.66016-0.40625 1.1406-0.40625 0.15625 0 0.30469 0.023437 0.45312 0.0625 0.14453 0.03125 0.28516 0.085937 0.42188 0.15625v0.57812c-0.13672-0.09375-0.27344-0.16016-0.40625-0.20312-0.125-0.039063-0.26172-0.0625-0.40625-0.0625-0.27344 0-0.48047 0.085937-0.625 0.25-0.14844 0.16797-0.21875 0.39844-0.21875 0.6875 0 0.30469 0.070313 0.53906 0.21875 0.70312 0.14453 0.16797 0.35156 0.25 0.625 0.25 0.14453 0 0.28125-0.019531 0.40625-0.0625 0.13281-0.050781 0.26953-0.125 0.40625-0.21875z"/>
  </symbol>
  <symbol id="d" overflow="visible">
   <path d="m1.9062-1.5469c-0.0625-0.03125-0.125-0.050781-0.1875-0.0625-0.054688-0.007813-0.10938-0.015625-0.17188-0.015625-0.16797 0-0.30469 0.058594-0.40625 0.17188-0.09375 0.10547-0.14062 0.26172-0.14062 0.46875v0.98438h-0.67188v-2.125h0.67188v0.34375c0.09375-0.13281 0.19531-0.23438 0.3125-0.29688 0.11328-0.0625 0.25-0.09375 0.40625-0.09375h0.0625c0.03125 0 0.070312 0.007813 0.125 0.015625z"/>
  </symbol>
  <symbol id="a" overflow="visible">
   <path d="m2.4531-1.0625v0.1875h-1.5938c0.019531 0.15625 0.078125 0.27734 0.17188 0.35938 0.10156 0.085937 0.24219 0.125 0.42188 0.125 0.13281 0 0.27344-0.019531 0.42188-0.0625 0.15625-0.050781 0.3125-0.11719 0.46875-0.20312v0.53125c-0.15625 0.0625-0.32031 0.10938-0.48438 0.14062-0.15625 0.03125-0.3125 0.046875-0.46875 0.046875-0.38672 0-0.6875-0.097656-0.90625-0.29688-0.21094-0.19531-0.3125-0.47266-0.3125-0.82812 0-0.34375 0.10156-0.61328 0.3125-0.8125 0.20703-0.19531 0.49219-0.29688 0.85938-0.29688 0.33203 0 0.59766 0.10156 0.79688 0.29688 0.20703 0.19922 0.3125 0.46875 0.3125 0.8125zm-0.70312-0.23438c0-0.125-0.039062-0.22656-0.10938-0.3125-0.074219-0.082031-0.17188-0.125-0.29688-0.125-0.13672 0-0.24609 0.042969-0.32812 0.125-0.074219 0.074219-0.12109 0.17969-0.14062 0.3125z"/>
  </symbol>
  <symbol id="l" overflow="visible">
   <path d="m1.2812-0.95312c-0.14844 0-0.25781 0.027344-0.32812 0.078125-0.0625 0.042969-0.09375 0.10938-0.09375 0.20312 0 0.085937 0.023437 0.15234 0.078125 0.20312 0.0625 0.054688 0.14453 0.078125 0.25 0.078125 0.125 0 0.22656-0.046875 0.3125-0.14062 0.09375-0.09375 0.14062-0.20703 0.14062-0.34375v-0.078125zm1.0312-0.26562v1.2188h-0.67188v-0.3125c-0.09375 0.125-0.19922 0.21875-0.3125 0.28125-0.11719 0.0625-0.25781 0.09375-0.42188 0.09375-0.21875 0-0.39844-0.0625-0.53125-0.1875-0.13672-0.13281-0.20312-0.30469-0.20312-0.51562 0-0.25 0.082031-0.42969 0.25-0.54688 0.17578-0.11328 0.44531-0.17188 0.8125-0.17188h0.40625v-0.0625c0-0.10156-0.046875-0.17969-0.14062-0.23438-0.085938-0.050781-0.21484-0.078125-0.39062-0.078125-0.14844 0-0.28125 0.015625-0.40625 0.046875s-0.24219 0.078125-0.34375 0.14062v-0.53125c0.14453-0.03125 0.28906-0.050781 0.4375-0.0625 0.14453-0.019531 0.28906-0.03125 0.4375-0.03125 0.38281 0 0.66016 0.078125 0.82812 0.23438 0.16406 0.14844 0.25 0.38672 0.25 0.71875z"/>
  </symbol>
  <symbol id="c" overflow="visible">
   <path d="m1.0625-2.7344v0.60938h0.70312v0.48438h-0.70312v0.90625c0 0.09375 0.019531 0.16406 0.0625 0.20312 0.039062 0.03125 0.11719 0.046875 0.23438 0.046875h0.35938v0.48438h-0.59375c-0.27344 0-0.46484-0.054688-0.57812-0.17188-0.10547-0.11328-0.15625-0.30078-0.15625-0.5625v-0.90625h-0.34375v-0.48438h0.34375v-0.60938z"/>
  </symbol>
  <symbol id="k" overflow="visible">
   <path d="m1.7812-1.8125v-1.1406h0.67188v2.9531h-0.67188v-0.3125c-0.09375 0.125-0.19922 0.21875-0.3125 0.28125-0.11719 0.0625-0.24609 0.09375-0.39062 0.09375-0.26172 0-0.48047-0.10156-0.65625-0.3125-0.16797-0.20703-0.25-0.47656-0.25-0.8125 0-0.32031 0.082031-0.58594 0.25-0.79688 0.17578-0.20703 0.39453-0.3125 0.65625-0.3125 0.14453 0 0.27344 0.03125 0.39062 0.09375 0.11328 0.054687 0.21875 0.14062 0.3125 0.26562zm-0.45312 1.375c0.14453 0 0.25391-0.050781 0.32812-0.15625 0.082031-0.11328 0.125-0.26953 0.125-0.46875 0-0.19531-0.042969-0.34766-0.125-0.45312-0.074219-0.11328-0.18359-0.17188-0.32812-0.17188-0.14844 0-0.26172 0.058594-0.34375 0.17188-0.074219 0.10547-0.10938 0.25781-0.10938 0.45312 0 0.19922 0.035156 0.35547 0.10938 0.46875 0.082031 0.10547 0.19531 0.15625 0.34375 0.15625z"/>
  </symbol>
  <symbol id="j" overflow="visible">
   <path d="m1.4531-0.4375c0.14453 0 0.25391-0.050781 0.32812-0.15625 0.082031-0.11328 0.125-0.26953 0.125-0.46875 0-0.19531-0.042969-0.34766-0.125-0.45312-0.074219-0.11328-0.18359-0.17188-0.32812-0.17188-0.14844 0-0.26172 0.058594-0.34375 0.17188-0.074219 0.10547-0.10938 0.25781-0.10938 0.45312 0 0.19922 0.035156 0.35547 0.10938 0.46875 0.082031 0.10547 0.19531 0.15625 0.34375 0.15625zm-0.45312-1.375c0.09375-0.125 0.19531-0.21094 0.3125-0.26562 0.11328-0.0625 0.25-0.09375 0.40625-0.09375 0.25781 0 0.47266 0.10547 0.64062 0.3125 0.16406 0.21094 0.25 0.47656 0.25 0.79688 0 0.33594-0.085937 0.60547-0.25 0.8125-0.16797 0.21094-0.38281 0.3125-0.64062 0.3125-0.15625 0-0.29297-0.03125-0.40625-0.09375-0.11719-0.0625-0.21875-0.15625-0.3125-0.28125v0.3125h-0.67188v-2.9531h0.67188z"/>
  </symbol>
  <symbol id="i" overflow="visible">
   <path d="m0.046875-2.125h0.6875l0.5625 1.4375 0.48438-1.4375h0.6875l-0.89062 2.3281c-0.09375 0.23828-0.20312 0.40625-0.32812 0.5-0.11719 0.09375-0.27344 0.14062-0.46875 0.14062h-0.39062v-0.45312h0.21875c0.11328 0 0.19531-0.023437 0.25-0.0625 0.050781-0.03125 0.085937-0.09375 0.10938-0.1875l0.03125-0.0625z"/>
  </symbol>
  <symbol id="h" overflow="visible">
   <path d="m0.32812-2.125h0.67188v2.125h-0.67188zm0-0.82812h0.67188v0.54688h-0.67188z"/>
  </symbol>
  <symbol id="g" overflow="visible">
   <path d="m2.0469-2.0625v0.5625c-0.09375-0.0625-0.1875-0.10938-0.28125-0.14062s-0.1875-0.046875-0.28125-0.046875c-0.19922 0-0.35156 0.058594-0.45312 0.17188-0.10547 0.10547-0.15625 0.25781-0.15625 0.45312 0 0.19922 0.050781 0.35547 0.15625 0.46875 0.10156 0.10547 0.25391 0.15625 0.45312 0.15625 0.10156 0 0.20312-0.015625 0.29688-0.046875s0.17969-0.078125 0.26562-0.14062v0.5625c-0.10547 0.042969-0.21484 0.070312-0.32812 0.09375-0.10547 0.019531-0.21484 0.03125-0.32812 0.03125-0.38672 0-0.6875-0.097656-0.90625-0.29688-0.21094-0.19531-0.3125-0.47266-0.3125-0.82812 0-0.35156 0.10156-0.625 0.3125-0.8125 0.21875-0.19531 0.51953-0.29688 0.90625-0.29688 0.11328 0 0.22266 0.011719 0.32812 0.03125 0.11328 0.011719 0.22266 0.039063 0.32812 0.078125z"/>
  </symbol>
  <symbol id="b" overflow="visible">
   <path d="m1.3438-1.6875c-0.15625 0-0.27734 0.054688-0.35938 0.15625-0.074219 0.10547-0.10938 0.26172-0.10938 0.46875 0 0.21094 0.035156 0.36719 0.10938 0.46875 0.082031 0.10547 0.20312 0.15625 0.35938 0.15625 0.14453 0 0.25391-0.050781 0.32812-0.15625 0.082031-0.10156 0.125-0.25781 0.125-0.46875 0-0.20703-0.042969-0.36328-0.125-0.46875-0.074219-0.10156-0.18359-0.15625-0.32812-0.15625zm0-0.48438c0.36328 0 0.64453 0.10156 0.84375 0.29688 0.20703 0.1875 0.3125 0.46094 0.3125 0.8125 0 0.35547-0.10547 0.63281-0.3125 0.82812-0.19922 0.19922-0.48047 0.29688-0.84375 0.29688-0.375 0-0.66797-0.097656-0.875-0.29688-0.19922-0.19531-0.29688-0.47266-0.29688-0.82812 0-0.35156 0.097656-0.625 0.29688-0.8125 0.20703-0.19531 0.5-0.29688 0.875-0.29688z"/>
  </symbol>
  <symbol id="f" overflow="visible">
   <path d="m2.4688-1.2969v1.2969h-0.6875v-0.98438c0-0.1875-0.007812-0.3125-0.015625-0.375-0.011719-0.070313-0.023437-0.12891-0.03125-0.17188-0.03125-0.039062-0.074219-0.070312-0.125-0.09375-0.042969-0.03125-0.089844-0.046875-0.14062-0.046875-0.14844 0-0.26172 0.058594-0.34375 0.17188-0.085938 0.10547-0.125 0.25781-0.125 0.45312v1.0469h-0.67188v-2.125h0.67188v0.3125c0.10156-0.125 0.21094-0.21094 0.32812-0.26562 0.11328-0.0625 0.24219-0.09375 0.39062-0.09375 0.23828 0 0.42188 0.074219 0.54688 0.21875 0.13281 0.14844 0.20312 0.36719 0.20312 0.65625z"/>
  </symbol>
  <symbol id="e" overflow="visible">
   <path d="m0.29688-0.82812v-1.2969h0.6875v0.20312 0.45312 0.34375c0 0.16797 0.003906 0.28906 0.015625 0.35938 0.007812 0.074219 0.023438 0.13281 0.046875 0.17188 0.019531 0.042969 0.050781 0.078125 0.09375 0.10938 0.050781 0.023437 0.10938 0.03125 0.17188 0.03125 0.13281 0 0.24219-0.050781 0.32812-0.15625 0.082031-0.11328 0.125-0.26953 0.125-0.46875v-1.0469h0.67188v2.125h-0.67188v-0.3125c-0.10547 0.125-0.21484 0.21875-0.32812 0.28125-0.11719 0.0625-0.24219 0.09375-0.375 0.09375-0.25 0-0.44531-0.070312-0.57812-0.21875-0.125-0.15625-0.1875-0.37891-0.1875-0.67188z"/>
  </symbol>
  <symbol id="r" overflow="visible">
   <path d="m1.7344-2.9531v0.4375h-0.39062c-0.09375 0-0.16406 0.023437-0.20312 0.0625-0.03125 0.03125-0.046875 0.089844-0.046875 0.17188v0.15625h0.57812v0.48438h-0.57812v1.6406h-0.6875v-1.6406h-0.32812v-0.48438h0.32812v-0.15625c0-0.22656 0.0625-0.39453 0.1875-0.5 0.13281-0.11328 0.33594-0.17188 0.60938-0.17188z"/>
  </symbol>
  <symbol id="q" overflow="visible">
   <path d="m2.2969-1.7812c0.082031-0.125 0.17969-0.21875 0.29688-0.28125 0.125-0.070312 0.25781-0.10938 0.40625-0.10938 0.23828 0 0.42188 0.074219 0.54688 0.21875 0.13281 0.14844 0.20312 0.36719 0.20312 0.65625v1.2969h-0.6875v-1.1094-0.046875-0.078125c0-0.15625-0.023438-0.26562-0.0625-0.32812-0.042969-0.070312-0.11719-0.10938-0.21875-0.10938-0.125 0-0.22656 0.058594-0.29688 0.17188-0.074219 0.10547-0.10938 0.25781-0.10938 0.45312v1.0469h-0.6875v-1.1094c0-0.23828-0.023438-0.39062-0.0625-0.45312-0.03125-0.070312-0.10156-0.10938-0.20312-0.10938-0.13672 0-0.24219 0.058594-0.3125 0.17188-0.074219 0.10547-0.10938 0.25781-0.10938 0.45312v1.0469h-0.67188v-2.125h0.67188v0.3125c0.082031-0.125 0.17578-0.21094 0.28125-0.26562 0.11328-0.0625 0.23828-0.09375 0.375-0.09375 0.14453 0 0.27344 0.039063 0.39062 0.10938 0.11328 0.0625 0.19531 0.15625 0.25 0.28125z"/>
  </symbol>
  <symbol id="p" overflow="visible">
   <path d="m2.4688-1.2969v1.2969h-0.6875v-0.98438c0-0.1875-0.007812-0.3125-0.015625-0.375-0.011719-0.070313-0.023437-0.12891-0.03125-0.17188-0.03125-0.039062-0.074219-0.070312-0.125-0.09375-0.042969-0.03125-0.089844-0.046875-0.14062-0.046875-0.14844 0-0.26172 0.058594-0.34375 0.17188-0.085938 0.10547-0.125 0.25781-0.125 0.45312v1.0469h-0.67188v-2.9531h0.67188v1.1406c0.10156-0.125 0.21094-0.21094 0.32812-0.26562 0.11328-0.0625 0.24219-0.09375 0.39062-0.09375 0.23828 0 0.42188 0.074219 0.54688 0.21875 0.13281 0.14844 0.20312 0.36719 0.20312 0.65625z"/>
  </symbol>
  <symbol id="o" overflow="visible">
   <path d="m0.35938-2.8438h0.8125l1.0312 1.9531v-1.9531h0.70312v2.8438h-0.82812l-1.0312-1.9531v1.9531h-0.6875z"/>
  </symbol>
  <symbol id="n" overflow="visible">
   <path d="m0.35938-2.8438h1.2188c0.35156 0 0.625 0.085938 0.8125 0.25 0.19531 0.15625 0.29688 0.38672 0.29688 0.6875 0 0.29297-0.10156 0.52344-0.29688 0.6875-0.1875 0.15625-0.46094 0.23438-0.8125 0.23438h-0.48438v0.98438h-0.73438zm0.73438 0.53125v0.79688h0.40625c0.13281 0 0.23828-0.03125 0.3125-0.09375 0.082031-0.070313 0.125-0.17188 0.125-0.29688s-0.042969-0.22266-0.125-0.29688c-0.074219-0.070313-0.17969-0.10938-0.3125-0.10938z"/>
  </symbol>
  <symbol id="m" overflow="visible">
   <path d="m0.32812-2.125h0.67188v2.0938c0 0.28125-0.070312 0.49219-0.20312 0.64062-0.13672 0.15625-0.33594 0.23438-0.59375 0.23438h-0.32812v-0.45312h0.10938c0.13281 0 0.22266-0.03125 0.26562-0.09375 0.050781-0.054687 0.078125-0.16406 0.078125-0.32812zm0-0.82812h0.67188v0.54688h-0.67188z"/>
  </symbol>
 </defs>
 <g>
  <path d="m175 330.89-175-175 65.711-65.711 284.77 284.77 284.28-284.28 65.227 65.227-350 350-175-175z"/>
  <use y="517.578125" xlink:href="#s"/>
  <use x="2.859375" y="517.578125" xlink:href="#d"/>
  <use x="4.777344" y="517.578125" xlink:href="#a"/>
  <use x="7.417969" y="517.578125" xlink:href="#l"/>
  <use x="10.046875" y="517.578125" xlink:href="#c"/>
  <use x="11.910156" y="517.578125" xlink:href="#a"/>
  <use x="14.550781" y="517.578125" xlink:href="#k"/>
  <use x="18.695312" y="517.578125" xlink:href="#j"/>
  <use x="21.480469" y="517.578125" xlink:href="#i"/>
  <use x="25.375" y="517.578125" xlink:href="#h"/>
  <use x="26.710938" y="517.578125" xlink:href="#g"/>
  <use x="29.019531" y="517.578125" xlink:href="#b"/>
  <use x="31.695313" y="517.578125" xlink:href="#f"/>
  <use x="34.46875" y="517.578125" xlink:href="#a"/>
  <use x="37.109375" y="517.578125" xlink:href="#e"/>
  <use y="521.472656" xlink:href="#r"/>
  <use x="1.695313" y="521.472656" xlink:href="#d"/>
  <use x="3.613281" y="521.472656" xlink:href="#b"/>
  <use x="6.289063" y="521.472656" xlink:href="#q"/>
  <use x="11.703125" y="521.472656" xlink:href="#c"/>
  <use x="13.566406" y="521.472656" xlink:href="#p"/>
  <use x="16.335938" y="521.472656" xlink:href="#a"/>
  <use x="20.335938" y="521.472656" xlink:href="#o"/>
  <use x="23.59375" y="521.472656" xlink:href="#b"/>
  <use x="26.269531" y="521.472656" xlink:href="#e"/>
  <use x="29.042969" y="521.472656" xlink:href="#f"/>
  <use x="33.171875" y="521.472656" xlink:href="#n"/>
  <use x="36.023438" y="521.472656" xlink:href="#d"/>
  <use x="37.945312" y="521.472656" xlink:href="#b"/>
  <use x="40.621094" y="521.472656" xlink:href="#m"/>
  <use x="41.953125" y="521.472656" xlink:href="#a"/>
  <use x="44.597656" y="521.472656" xlink:href="#g"/>
  <use x="46.90625" y="521.472656" xlink:href="#c"/>
 </g>
</svg>
