<svg xmlns="http://www.w3.org/2000/svg" viewBox="0 0 516.92 516.92"><defs><style>.a1777f77-9148-4e89-bb96-627d4cecf4f0{fill:#fff;}</style></defs><g id="b493408d-ee3d-44a5-bbb9-81576cd16ee9" data-name="Capa 2"><g id="a5bd6415-2886-44fc-b727-8c95c5334ce4" data-name="Capa 1"><path class="a1777f77-9148-4e89-bb96-627d4cecf4f0" d="M430.77,344.61a86.15,86.15,0,0,0-28.59,4.87l-95.91-191.8a86.12,86.12,0,1,0-95.63,0L114.75,349.5a86.17,86.17,0,1,0,56.81,92h173.8a86.12,86.12,0,1,0,85.4-96.92ZM229.86,167.45c.3.1.62.13.92.23a83.43,83.43,0,0,0,11.88,3c.77.14,1.54.28,2.32.4a86.47,86.47,0,0,0,13.48,1.18,87.69,87.69,0,0,0,13.48-1.17l2.34-.41a82.83,82.83,0,0,0,11.93-3.07c.28-.09.58-.12.86-.22L382.9,359.1c-.23.15-.42.32-.64.47-.61.42-1.16.88-1.76,1.31a84.68,84.68,0,0,0-7,5.57c-.72.64-1.42,1.3-2.12,2a85.68,85.68,0,0,0-6,6.25c-.52.6-1.05,1.18-1.56,1.8A85.23,85.23,0,0,0,352.35,395c-.36.81-.67,1.65-1,2.47-1.05,2.53-2,5.11-2.8,7.74-.32,1.05-.63,2.08-.91,3.14-.73,2.75-1.31,5.55-1.77,8.4-.14.81-.33,1.61-.44,2.44,0,.28-.11.55-.14.83H171.65c0-.27-.11-.53-.15-.81-.1-.79-.29-1.57-.42-2.36-.46-2.82-1-5.6-1.76-8.33-.3-1.13-.64-2.23-1-3.34-.76-2.45-1.63-4.84-2.6-7.2-.42-1-.8-2-1.26-3a85.71,85.71,0,0,0-4.66-8.85c-.14-.23-.26-.47-.4-.71a85.05,85.05,0,0,0-6-8.4c-.77-1-1.61-1.86-2.43-2.79-1.54-1.76-3.15-3.47-4.85-5.11-1-1-2-1.9-3-2.81-1.82-1.59-3.73-3.09-5.7-4.55-1-.71-1.88-1.47-2.88-2.15-.19-.12-.35-.27-.53-.39Z"/></g></g></svg>