<svg xmlns="http://www.w3.org/2000/svg" viewBox="0 0 376.92 506.77"><defs><style>.bffd9b1c-ccee-48dd-8a88-54594ad4768a{fill:#fff;}</style></defs><g id="e2f1f175-10a1-4485-a761-93edaa2c5431" data-name="Capa 2"><g id="a2e32174-6705-42e4-98b8-4df855e26693" data-name="Capa 1"><path class="bffd9b1c-ccee-48dd-8a88-54594ad4768a" d="M325.45,399.08H274.1c48.5-27.9,81.29-80.14,81.29-140a160,160,0,0,0-13-63,53.85,53.85,0,0,0-30.08-98.51,53.21,53.21,0,0,0-13.37,1.88l25.54-53-26.6-12.82,8.34-17.29L272.44,0,264.1,17.29,237.57,4.5,143.12,200.39l87,41.89,33.15-68.85a53.3,53.3,0,0,0,59.2,30.77,138.7,138.7,0,0,1,11.36,54.88c0,77.2-62.8,140-140,140A140.8,140.8,0,0,1,76,334.46H193.85V312.92H0v21.54H51.07a161.88,161.88,0,0,0,62.66,64.62H83.78A51.61,51.61,0,0,0,32.3,450.55v56.22H376.92V450.55a51.54,51.54,0,0,0-51.47-51.47Z"/></g></g></svg>