<svg xmlns="http://www.w3.org/2000/svg" viewBox="0 0 473.84 516.92"><defs><style>.bf6bb998-6f1b-49d0-8203-bf36cb3042ab{fill:#fff;}</style></defs><g id="e379da50-73a4-486c-9464-679a813d865f" data-name="Capa 2"><g id="beda526e-8091-48df-9f7e-06025dfdf87f" data-name="Capa 1"><path class="bf6bb998-6f1b-49d0-8203-bf36cb3042ab" d="M399.12,261.7c5.06-3.77,9.92-7.55,14.64-11.37a32.06,32.06,0,0,0,44.16-44.4c15.43-21.29,19.72-39.67,12.54-54.67-8.24-17.12-29.46-25.8-63-25.8-25.56,0-57.66,5.16-93.38,14.89C299.81,52.25,271.31,0,236.87,0,203.23,0,175,50.56,160.5,135.84a470.37,470.37,0,0,0-47.16-12,32.15,32.15,0,0,0-62.27-4.77c-21.52,2.21-36,9.78-43,22.67C-6,168.36,18.18,209.3,74.59,255.07,16.23,298.49-9.7,338.38,3.28,365.55c8.25,17.12,29.47,25.81,63.06,25.81,25.56,0,57.69-5.17,93.4-14.9,2.58,15.77,5.61,30.45,9.06,43.92a32.32,32.32,0,0,0,19.61,58c.52,0,1-.11,1.49-.14,13.53,25.58,29.29,38.68,47,38.68,33.76,0,61.95-50.63,76.38-136,37.07,11.44,69.95,17.51,95.59,17.51,29.42,0,48.52-7.86,56.8-23.36,18.61-35-29.22-83-66.52-113.39Zm51.93-101.11c3.31,6.92-.28,18.3-9.89,31.85a32.16,32.16,0,0,0-3.51-.88c-.51-.11-1-.3-1.51-.39a33.72,33.72,0,0,0-5.43-.45,32.3,32.3,0,0,0-32.23,31.55c0,.26-.07.5-.07.76a32.49,32.49,0,0,0,1.78,10.72c-5.94,4.8-12.26,9.55-18.74,14.27a682.87,682.87,0,0,0-60.06-39.75c-1-16.13-2.5-31.61-4.36-46.4,35-9.71,66.08-14.88,90.38-14.88,23.57,0,39.48,5,43.64,13.6ZM262.62,339.48c3.39-1.49,6.92-3.07,10.7-4.78,8.3-3.78,16.78-7.91,25.44-12.25q-1.25,15.23-3.14,29.73-16.46-5.83-33-12.7Zm-85,9.25c-1.07-8.84-2-17.92-2.76-27.33,7.11,3.89,14.48,7.8,22.32,11.82,3.56,1.79,7.12,3.38,10.69,5.13-10.28,3.8-20.39,7.27-30.25,10.38Zm33.55-171.4c-3.39,1.49-6.92,3.07-10.69,4.78-8.61,3.92-17.1,8-25.49,12.26q1.28-15.26,3.12-29.81,16.56,5.94,33.06,12.77Zm-60.11,105.3q-21.62-13.38-40.06-26.79,18.8-12.48,40.15-24.47c-.29,8.91-.48,17.93-.48,27.08,0,8,.15,16.06.39,24.18ZM207,314c-12.23-6.25-23.26-12.27-33.81-18.29-.58-12.7-.93-25-.93-37.28,0-13.29.38-26.31,1-38.95,11.78-6.18,23.89-12.18,36.17-17.79,11.29-5.11,20.59-9.14,29-12.57,9.35,4.35,18.78,8.83,28.31,13.64C279,209,290,215,300.56,221.06c.58,12.66.93,25.23.93,37.39,0,13.27-.38,26.27-1,38.93C288,303.9,276,309.81,264.42,315.09c-11.29,5.11-20.59,9.13-29,12.58-9.45-4.36-19-8.89-28.41-13.65Zm89.1-145.74c1.06,8.8,2,17.81,2.73,27.11-7.1-3.88-14.46-7.79-22.31-11.81-3.53-1.78-6.95-3.32-10.45-5q15.09-5.55,30-10.26Zm26.53,65.85Q344,247.32,362.75,261q-19.12,12.67-40.21,24.56c.3-8.91.49-17.93.49-27.08,0-8-.15-16.1-.4-24.31ZM236.87,21.52c18.61,0,43.46,43,56.34,125.05-18,5.59-36.1,12-54.17,19.18-19.12-8.56-38.49-16.21-57.85-23C194.3,63.19,218.77,21.52,236.87,21.52ZM27.07,151.91c3.15-5.78,11.64-9.67,24.3-11.23.09.23.22.45.32.69.17.42.39.82.58,1.23a32.85,32.85,0,0,0,2.16,4c.27.42.54.83.82,1.23a33.13,33.13,0,0,0,3.11,3.77c.19.19.36.41.55.6a32.42,32.42,0,0,0,4.52,3.74c.2.13.4.23.59.35a32.37,32.37,0,0,0,4.37,2.38c.5.23,1,.43,1.54.63A33,33,0,0,0,74,160.53c.56.13,1.11.29,1.67.4a32.57,32.57,0,0,0,5.79.59h.23a33,33,0,0,0,5.1-.46c.55-.09,1.09-.22,1.63-.33a29.71,29.71,0,0,0,3.42-.94c.56-.18,1.12-.36,1.66-.58A31.8,31.8,0,0,0,97,157.54c.33-.18.69-.32,1-.52a32.71,32.71,0,0,0,3.88-2.74c.49-.4.93-.83,1.39-1.25.77-.71,1.52-1.45,2.22-2.23.44-.49.87-1,1.28-1.5a31.42,31.42,0,0,0,2-2.94c.25-.39.53-.76.76-1.16l.13-.2a462.21,462.21,0,0,1,47.58,12.38c-2.09,15.71-3.74,32-4.84,48.75a652.82,652.82,0,0,0-59.58,36C38,198.68,20.12,165.05,27.07,151.92ZM22.7,356.23c-6.44-13.48,12.91-46.3,69.66-87.44a683.25,683.25,0,0,0,60,39.74c1,16.19,2.5,31.67,4.36,46.4-34.94,9.71-66.07,14.88-90.37,14.88-23.58,0-39.49-5-43.65-13.58ZM236.88,495.37c-8.46,0-18.07-9.08-27-25.26.26-.24.46-.54.71-.78a33.38,33.38,0,0,0,3.06-3.35c.31-.4.66-.77,1-1.18a32.15,32.15,0,0,0,3-5c.23-.48.39-1,.6-1.47a31.52,31.52,0,0,0,1.45-4.37c.15-.58.31-1.15.42-1.75a31.55,31.55,0,0,0,.66-6.09v0a31.54,31.54,0,0,0-.92-7.31c-.1-.45-.27-.88-.4-1.33a32,32,0,0,0-2.27-5.84c-.09-.18-.19-.37-.3-.56a32.2,32.2,0,0,0-27.56-17.25c-3.33-13.23-6.23-27.8-8.71-43.39,17.5-5.39,35.71-11.86,54.32-19.3,19.23,8.64,38.54,16.25,57.68,22.9-13,79.67-37.51,121.4-55.69,121.4ZM446.64,365c-4.06,7.6-17.83,11.95-37.79,11.95-24.25,0-56.1-6.1-92.43-17.55,2.15-15.61,3.8-31.83,4.84-48.58A667.39,667.39,0,0,0,380.9,274.7c54.82,43.55,72.72,77.13,65.74,90.25Z"/></g></g></svg>