<svg xmlns="http://www.w3.org/2000/svg" viewBox="0 0 396.01 516.92"><defs><style>.ef1eafd4-4b87-4b95-9362-683e1988b039{fill:#fff;}</style></defs><g id="f9f6c646-7d6f-497a-b8c9-b1b064c48675" data-name="Capa 2"><g id="ad50f7fe-1849-4ac7-b36d-60fde1957d6c" data-name="Capa 1"><path class="ef1eafd4-4b87-4b95-9362-683e1988b039" d="M247.66,115.77V0H161.5V115.66c-27.42,12.19-59.65,35.1-74.95,65.84H320.23c-16.15-29.95-44.46-53.12-72.58-65.73Z"/><path class="ef1eafd4-4b87-4b95-9362-683e1988b039" d="M393.13,488.06,263.42,348.2a129.21,129.21,0,0,0,70.39-114.93,104.38,104.38,0,0,0-4.51-30.22H78.91a130.43,130.43,0,0,0-3.55,30.22,129.12,129.12,0,0,0,61.77,110L2.87,488.07a10.77,10.77,0,0,0,15.8,14.65l137.54-148.3a10.16,10.16,0,0,0,.69-1.14,128.28,128.28,0,0,0,85.21,3.63L377.34,502.72a10.77,10.77,0,1,0,15.79-14.64Z"/><path class="ef1eafd4-4b87-4b95-9362-683e1988b039" d="M226.15,387.69a10.77,10.77,0,0,0-10.77,10.77v10.68a62.58,62.58,0,0,0,18.45,44.54l11.62,11.62a10.77,10.77,0,1,0,15.24-15.22l-11.63-11.63a41.18,41.18,0,0,1-12.14-29.31V398.46a10.77,10.77,0,0,0-10.77-10.77Z"/><path class="ef1eafd4-4b87-4b95-9362-683e1988b039" d="M179.19,379.4l-.36-.27a10.58,10.58,0,0,0-14.91,2.13,11,11,0,0,0,2.1,15.19c9,6.94,10.94,20,4.48,29.65-5,7.56-6.7,14.77-4.92,21.45,1.12,4.23,4.24,10.17,12.68,14.39a10.61,10.61,0,0,0,4.8,1.14,10.77,10.77,0,0,0,4.83-20.4c-.74-.37-1.19-.68-1.39-.75a13,13,0,0,1,1.93-3.87c12.7-19.05,8.66-44.81-9.24-58.66Z"/><path class="ef1eafd4-4b87-4b95-9362-683e1988b039" d="M269.23,495.38H240l-29.29-8.58-49.18-.44a10.77,10.77,0,0,0,0,21.54h44.61l29.28,8.58,33.81.44a10.77,10.77,0,0,0,0-21.54Z"/></g></g></svg>