<?xml version="1.0" encoding="utf-8"?>
<!-- Generator: Adobe Illustrator 26.0.1, SVG Export Plug-In . SVG Version: 6.00 Build 0)  -->
<svg version="1.1" id="Capa_1" xmlns="http://www.w3.org/2000/svg" xmlns:xlink="http://www.w3.org/1999/xlink" x="0px" y="0px"
	 viewBox="0 0 286 294.9" style="enable-background:new 0 0 286 294.9;" xml:space="preserve">
<style type="text/css">
	.st0{fill:#F7D5C6;}
	.st1{fill:#B4937F;}
	.st2{fill:#454444;}
	.st3{fill:#BFBDBD;}
	.st4{fill:#FFFFFF;}
	.st5{fill:#525251;}
	.st6{fill:#E5B9A0;}
</style>
<g>
	<polygon class="st0" points="94.6,183.4 118.1,184.3 141.6,210.2 	"/>
	<polygon class="st0" points="94.6,183.2 94.6,228.7 141.6,255.5 141.6,210 	"/>
	<polygon class="st1" points="119.9,218.7 119.9,243 110.5,237.7 110.2,237.5 109.8,237.3 108.8,236.7 108.8,212.4 	"/>
	<polygon class="st2" points="119.9,218.7 119.9,241 110.5,235.6 110.5,213.3 	"/>
	<polygon class="st3" points="107.8,198.4 107.8,211 98,205.4 96.7,204.6 96.7,192.1 	"/>
	<polygon class="st4" points="107.8,198.4 107.8,209.6 98,204 98,192.9 	"/>
	<polygon class="st3" points="136.5,210.9 136.5,223.4 126.7,217.9 125.4,217.1 125.4,204.6 	"/>
	<polygon class="st4" points="136.5,210.9 136.5,222.1 126.7,216.5 126.7,205.3 	"/>
	<polygon class="st2" points="145,214 193,186.3 166,156.6 140,155.5 92,183.2 118.1,184.3 	"/>
	<polygon class="st1" points="189.6,182.4 189.6,227.8 141.6,255.5 141.6,210 	"/>
	<polygon class="st3" points="165.6,229.8 149.5,239 147.7,240.1 147.7,223.1 165.6,212.8 165.6,214.8 	"/>
	<polygon class="st3" points="185.6,218.4 169.5,227.7 167.7,228.7 167.7,211.8 185.6,201.4 185.6,203.4 	"/>
	<polygon class="st4" points="163.8,228.8 147.7,238.1 147.7,223.1 163.8,213.9 	"/>
	<polygon class="st4" points="183.8,217.4 167.7,226.7 167.7,211.7 183.8,202.4 	"/>
	<polygon class="st5" points="118.1,184.3 166,156.6 193,186.3 145,214 	"/>
	<polygon class="st2" points="92,183.2 92,185.5 116.6,186.7 145,217.8 145,214 118.1,184.3 	"/>
	<polygon class="st2" points="145,214 193,186.3 193,190.1 145,217.8 	"/>
	<path class="st6" d="M118.1,184.3"/>
	<path class="st2" d="M110.5,215.3"/>
</g>
</svg>
