<?xml version="1.0" encoding="utf-8"?>
<!-- Generator: Adobe Illustrator 26.0.1, SVG Export Plug-In . SVG Version: 6.00 Build 0)  -->
<svg version="1.1" id="Capa_1" xmlns="http://www.w3.org/2000/svg" xmlns:xlink="http://www.w3.org/1999/xlink" x="0px" y="0px"
	 viewBox="0 0 700 700" style="enable-background:new 0 0 700 700;" xml:space="preserve">
<style type="text/css">
	.st0{fill:#FFFFFF;}
</style>
<g>
	<path class="st0" d="M169,0h24.1v24.1H169V0z"/>
	<path class="st0" d="M229.3,0h24.1v24.1h-24.1V0z"/>
	<path class="st0" d="M156.9,72.4H181V48.3h-24.1c-26.6,0-48.3,21.7-48.3,48.3h24.1C132.8,83.2,143.6,72.4,156.9,72.4z"/>
	<path class="st0" d="M144.8,0C91.6,0,48.3,43.3,48.3,96.6h24.1c0-39.9,32.5-72.4,72.4-72.4V0z"/>
	<path class="st0" d="M48.3,446.6c0-46.6,37.9-84.5,84.5-84.5h24.1c46.6,0,84.5,37.9,84.5,84.5v36.2h48.5c5.3-7,11.3-13.4,17.9-19.1
		l-2-9.1c-3.8-17.4-11.6-33.6-22.1-52.4c-5.5-9.8-7.3-20.9-5.3-32.1c3.4-19.2,18.5-34.7,37.6-38.5c14.4-2.9,29,0.8,40,9.6
		c16.9-13.6,43.5-13.6,60.4,0c11-8.8,25.5-12.5,40-9.6c19.1,3.8,34.2,19.3,37.6,38.5c2,11.2,0.2,22.3-5.3,32.1
		c-10.6,18.9-18.4,35-22.1,52.4l-1.9,8.9c6.7,5.7,12.7,12.2,18,19.3h205.3V35.9L482.8,187.1v114.6h-24.1V36L253.5,187.1v174.9h-24.1
		V131.8L12.1,283.9v198.9h36.2L48.3,446.6z M591.4,193.1h36.2v24.1h-36.2V193.1z M591.4,241.4h36.2v24.1h-36.2V241.4z M519,193.1
		h36.2v24.1H519V193.1z M519,241.4h36.2v24.1H519V241.4z M362.1,193.1h36.2v24.1h-36.2V193.1z M362.1,241.4h36.2v24.1h-36.2V241.4z
		 M289.7,193.1h36.2v24.1h-36.2V193.1z M289.7,241.4h36.2v24.1h-36.2V241.4z"/>
	<path class="st0" d="M217.2,446.6c0-33.3-27.1-60.3-60.3-60.3h-24.1c-33.3,0-60.3,27.1-60.3,60.3v25.2l36.7-0.4
		c26.4-0.3,47.8-22,47.8-48.3c0-6.2,4.7-11.7,10.9-12.3c6.4-0.7,11.8,3.3,13,9.4l2.6,13c3.6,18.1,16.9,31.8,33.9,36.8V446.6z"/>
	<path class="st0" d="M687.9,555.2h-72.4v72.4c0,6.7-5.4,12.1-12.1,12.1h-48.3c-6.7,0-12.1-5.4-12.1-12.1v-72.4h-72.4V700h217.2
		V555.2z"/>
	<path class="st0" d="M443.2,448.8c4.7-21.3,14.6-40.7,24.5-58.5c2.7-4.8,3.6-10.4,2.6-16c-1.7-9.4-9.3-17.3-18.6-19.1
		c-10-2-19.7,1.9-25.2,10.3c-2.2,3.4-6,5.4-10.1,5.4s-7.8-2-10.1-5.4c-4.5-6.8-12-10.8-20.1-10.8s-15.6,4.1-20.1,10.8
		c-4.5,6.8-15.7,6.7-20.1,0c-5.6-8.4-15.3-12.3-25.2-10.3c-9.3,1.9-16.9,9.7-18.6,19.1c-1,5.7-0.1,11.2,2.6,16
		c10,17.8,19.8,37.2,24.5,58.5c17-9.2,36.4-14.4,57-14.4C406.8,434.5,426.1,439.7,443.2,448.8L443.2,448.8z"/>
	<path class="st0" d="M567.2,555.2h24.1v60.3h-24.1V555.2z"/>
	<path class="st0" d="M24.1,687.9V700h241.4v-12.1c0-20-16.2-36.2-36.2-36.2c-11.8,0-22.7-3.5-32-9.4l-47.8,20.5
		c-1.5,0.7-3.1,1-4.7,1c-1.8,0-3.7-0.4-5.4-1.3l-44.2-22.1c-9.9,7-21.9,11.3-34.9,11.3C40.4,651.7,24.1,668,24.1,687.9L24.1,687.9z"
		/>
	<path class="st0" d="M289.7,663.8c0,20,16.2,36.2,36.2,36.2h120.7V543.1c0-6.7,5.4-12.1,12.1-12.1h21
		c-10.8-42.1-48.7-72.4-93.4-72.4c-53.2,0-96.6,43.3-96.6,96.6V663.8z M337.9,615.5h24.1v6c0,10,8.1,18.1,18.1,18.1
		s18.1-8.1,18.1-18.1c0-10-8.1-18.1-18.1-18.1c-23.3,0-42.2-18.9-42.2-42.2c0-16.8,9.9-31.2,24.1-38v-16.3h24.1v12.7
		c20.4,3,36.2,20.4,36.2,41.6v6h-24.1v-6c0-10-8.1-18.1-18.1-18.1s-18.1,8.1-18.1,18.1c0,10,8.1,18.1,18.1,18.1
		c23.3,0,42.2,18.9,42.2,42.2c0,21.2-15.8,38.7-36.2,41.6v12.7h-24.1v-16.3c-14.2-6.8-24.1-21.2-24.1-38V615.5z"/>
	<path class="st0" d="M168.6,594.3c-7.6,3.2-15.7,4.8-23.8,4.8c-8.1,0-16.2-1.6-23.8-4.8c-0.2-0.1-0.4-0.2-0.6-0.3
		c-0.4,10.2-3.4,19.6-8.3,27.9l33.1,16.5l33.5-14.4c-5.7-8.7-9-19-9.5-30.1C169,594.1,168.8,594.2,168.6,594.3L168.6,594.3z"/>
	<path class="st0" d="M36.2,237.5l72.4-50.7v-78.2H36.2V237.5z"/>
	<path class="st0" d="M216.5,494.5c-19.7-3.9-36.7-15.6-47.1-32.3c-12.8,19.9-34.9,33-60,33.3l-36.1,0.4
		c4.2,33.5,25.6,62.7,57.3,76.3c9.1,3.9,19.5,3.9,28.5,0h0C191.2,558.4,212.7,528.6,216.5,494.5L216.5,494.5z"/>
</g>
</svg>
