<?xml version="1.0" encoding="utf-8"?>
<!-- Generator: Adobe Illustrator 26.0.1, SVG Export Plug-In . SVG Version: 6.00 Build 0)  -->
<svg version="1.1" id="Capa_1" xmlns="http://www.w3.org/2000/svg" xmlns:xlink="http://www.w3.org/1999/xlink" x="0px" y="0px"
	 viewBox="0 0 700 700" style="enable-background:new 0 0 700 700;" xml:space="preserve">
<style type="text/css">
	.st0{fill:#FFFFFF;}
</style>
<g>
	<path class="st0" d="M692.2,461.6c3.3,5.5,3.3,13.1,0,18.6l-54.7,90.8c-3.3,5.5-8.7,8.7-15.3,8.7H510.6c-6.6,0-12-3.3-15.3-8.8
		l-54.7-90.8c-3.3-5.5-3.3-13.1,0-18.6l54.7-90.8c3.3-5.5,8.8-8.8,15.3-8.8h111.6c6.6,0,12,3.3,15.3,8.8L692.2,461.6z"/>
	<path class="st0" d="M441.7,220.9l54.7-90.8c3.3-5.5,8.8-8.8,15.3-8.8h111.6c6.6,0,12,3.3,15.3,8.8l54.7,90.8
		c3.3,5.5,3.3,13.1,0,18.6l-54.7,90.8c-3.3,5.5-8.8,8.8-15.3,8.8l-111.6,0c-6.6,0-12-3.3-15.3-8.8l-54.7-90.8
		C438.5,233,438.5,226.4,441.7,220.9L441.7,220.9z"/>
	<path class="st0" d="M421,249.4l54.7,90.8c3.3,5.5,3.3,13.1,0,18.6L421,449.5c-4.4,6.6-9.8,9.8-16.4,9.8H294.1
		c-6.6,0-12-3.3-15.3-8.8l-54.7-90.8c-3.3-5.5-3.3-13.1,0-18.6l54.7-90.8c3.3-5.5,8.8-8.8,15.3-8.8h110.5
		C411.1,240.6,417.7,243.9,421,249.4L421,249.4z"/>
	<path class="st0" d="M475.6,581.9c3.3,5.5,3.3,13.1,0,18.6L421,691.2c-3.3,5.5-8.8,8.8-15.3,8.8l-111.6,0c-6.6,0-12-3.3-15.3-8.8
		l-54.7-90.8c-3.3-5.5-3.3-13.1,0-18.6l54.7-90.8c3.3-5.5,8.8-8.8,15.3-8.8l110.5,0c6.6,0,12,3.3,15.3,8.8L475.6,581.9z"/>
	<path class="st0" d="M224.1,118.1c-3.3-5.5-3.3-13.1,0-18.6l54.7-90.8c3.3-5.5,9.8-8.7,15.3-8.7h111.6c6.6,0,12,3.3,15.3,8.8
		l54.7,90.8c3.3,5.5,3.3,13.1,0,18.6L421,208.9c-3.3,5.5-8.8,8.8-15.3,8.8l-111.6,0c-6.6,0-12-3.3-15.3-8.8L224.1,118.1z"/>
	<path class="st0" d="M258,480.2l-54.7,90.8c-3.3,5.5-8.8,8.8-15.3,8.8H77.5c-6.6,0-12-3.3-15.3-8.8L7.5,480.2
		c-3.3-5.5-3.3-13.1,0-18.6l54.7-90.8c3.3-5.5,8.8-8.8,15.3-8.8h111.6c6.6,0,12,3.3,15.3,8.8l54.7,90.8
		C261.3,467,261.3,473.6,258,480.2L258,480.2z"/>
	<path class="st0" d="M7.5,238.4c-3.3-5.5-3.3-13.1,0-18.6l54.7-90.8c3.3-5.5,8.7-8.7,15.3-8.7h111.6c6.6,0,12,3.3,15.3,8.8
		l54.7,90.8c3.3,5.5,3.3,13.1,0,18.6l-54.7,90.8c-3.3,5.5-8.8,8.8-15.3,8.8l-111.6,0c-6.6,0-12-3.3-15.3-8.8L7.5,238.4z"/>
</g>
</svg>
