<svg id="b35f900a-b28e-41b8-b0a3-f743146f1bba" data-name="Capa 1" xmlns="http://www.w3.org/2000/svg" viewBox="0 0 238.75 256"><defs><style>.f64f5ec3-401e-4917-98e4-a7499fd0f510{fill:#fff;}</style></defs><path class="f64f5ec3-401e-4917-98e4-a7499fd0f510" d="M29,86.28V256H227V86.28h14.14l6.22-26.88L128,0,8.63,59.69l6.22,26.87ZM57.28,66.76,128,31.4l70.72,35.36v161H142.14v-49.5H113.86v49.5H57.28Z" transform="translate(-8.63)"/><path class="f64f5ec3-401e-4917-98e4-a7499fd0f510" d="M71.43,178.21H99.71V206.5H71.43Z" transform="translate(-8.63)"/><path class="f64f5ec3-401e-4917-98e4-a7499fd0f510" d="M156.29,178.21h28.28V206.5H156.29Z" transform="translate(-8.63)"/><path class="f64f5ec3-401e-4917-98e4-a7499fd0f510" d="M113.86,135.78h28.28v28.29H113.86Z" transform="translate(-8.63)"/><path class="f64f5ec3-401e-4917-98e4-a7499fd0f510" d="M71.43,135.78H99.71v28.29H71.43Z" transform="translate(-8.63)"/><path class="f64f5ec3-401e-4917-98e4-a7499fd0f510" d="M156.29,135.78h28.28v28.29H156.29Z" transform="translate(-8.63)"/><path class="f64f5ec3-401e-4917-98e4-a7499fd0f510" d="M113.86,93.35h28.28v28.29H113.86Z" transform="translate(-8.63)"/><path class="f64f5ec3-401e-4917-98e4-a7499fd0f510" d="M71.43,93.35H99.71v28.29H71.43Z" transform="translate(-8.63)"/><path class="f64f5ec3-401e-4917-98e4-a7499fd0f510" d="M156.29,93.35h28.28v28.29H156.29Z" transform="translate(-8.63)"/></svg>