<?xml version="1.0" encoding="utf-8"?>
<!-- Generator: Adobe Illustrator 26.0.1, SVG Export Plug-In . SVG Version: 6.00 Build 0)  -->
<svg version="1.1" id="Capa_1" xmlns="http://www.w3.org/2000/svg" xmlns:xlink="http://www.w3.org/1999/xlink" x="0px" y="0px"
	 viewBox="0 0 700 700" style="enable-background:new 0 0 700 700;" xml:space="preserve">
<style type="text/css">
	.st0{fill:#FFFFFF;}
</style>
<g>
	<path class="st0" d="M35.8,423.9c-7.9,0-15.6-2.8-21.6-8c-6-5.2-9.9-12.4-11-20.3C-8.7,307,14,217.3,66.5,145
		C120.2,71.2,200.4,21.2,290.2,5.6c89.8-15.6,182.2,4.3,257.7,55.5l14.8-20.4c2.3-3.2,6.1-4.8,10-4.3c3.9,0.5,7.1,3.1,8.5,6.7
		l39,101.2l0,0c1.2,3.3,0.6,7-1.5,9.8c-2.1,2.8-5.4,4.4-8.9,4.3l-108.3-5.3c-3.9-0.2-7.4-2.5-9-6c-1.7-3.5-1.3-7.7,1-10.8l14.6-19.6
		c-60.7-40.8-134.8-56.5-206.8-43.8c-72,12.7-136.3,52.8-179.3,111.9c-7.9,11.1-15,22.7-21.2,34.8H189c2.3,0,4.4,1.2,5.6,3.2
		c1.2,2,1.2,4.4,0,6.4c-6.5,11.6-8.1,25.3-4.5,38.2c4.6,12.6,14.6,22.4,27.2,26.8c22.7,8.4,48,6.5,69.2-5.2l66.4-37.2h0
		c1.9-1.1,4.4-0.7,5.8,1.1l138.8,169.6l17.2,20.7v0c5.4,6.2,7.8,14.5,6.6,22.6c-1.2,8.1-5.9,15.4-12.9,19.8
		c-5.5,3.2-11.8,4.6-18.2,3.8c-6.3-0.8-12.2-3.6-16.7-8.1l-2.3-2.3c-0.2-0.1-0.5-0.1-0.7,0c-0.2,0.1-0.3,0.3-0.3,0.6
		c1,5.5,0.4,11.1-1.7,16.2c-2.2,5.1-5.8,9.5-10.4,12.6c-5.6,3.5-12.1,4.9-18.6,4.2c-6.5-0.7-12.6-3.7-17.2-8.3l-2.1-2.1v0
		c-0.2-0.1-0.5-0.1-0.7,0c-0.2,0.1-0.3,0.3-0.3,0.6c1,5.5,0.4,11.1-1.7,16.2c-2.2,5.1-5.8,9.5-10.4,12.6c-5.5,3.5-12.1,5-18.6,4.2
		c-6.5-0.7-12.5-3.6-17.2-8.2l-2.1-2.1c-0.2-0.1-0.5-0.1-0.7,0c-0.2,0.1-0.3,0.3-0.3,0.6c1.3,7.4-0.3,14.9-4.6,21.1
		s-10.8,10.3-18.1,11.7c-7.3,1.3-14.9-0.3-21.1-4.5l2.7-4.7l0,0c5.7-9.6,8.1-20.8,6.8-31.9c-1.3-11.1-6.2-21.5-13.9-29.5
		c-7.4-7.3-16.8-12-27.1-13.6c-6.3-10.8-16.6-18.8-28.6-22.3c-4.7-16.5-17.8-29.4-34.3-33.8c-3.1-11.1-10-20.8-19.5-27.3
		c-10.6-6.6-23.2-9.1-35.6-7.1c-12.3,2-23.5,8.4-31.5,18l-17.9,22L35.8,423.9L35.8,423.9z M195.2,411c-5.1-2.8-11.1-3.8-16.8-2.6
		c-5.7,1.2-10.9,4.3-14.5,8.9l-18.6,22.9c-4,4.9-5.9,11.3-5.2,17.6c0.7,6.3,3.9,12.1,8.9,16l2.8,2.3h0c3.7,2.9,8.2,4.6,12.9,5
		c4.7,0.3,9.4-0.8,13.5-3.1c0.4-0.2,0.9-0.2,1.2,0c0.4,0.3,0.5,0.7,0.5,1.2c-0.8,4.3-0.5,8.7,1,12.8c1.5,4.1,4.1,7.7,7.6,10.4
		l2.3,1.8v0c3.6,2.8,7.9,4.5,12.4,5c4.5,0.4,9.1-0.4,13.1-2.5c0.4-0.2,0.9-0.2,1.2,0.1c0.4,0.3,0.6,0.7,0.5,1.1
		c-0.8,8.1,2.5,16.1,9,21.2l1.6,1.3c3.6,2.8,8,4.6,12.5,5c4.6,0.4,9.2-0.5,13.2-2.6c0.4-0.2,0.9-0.3,1.3-0.1
		c0.4,0.2,0.7,0.6,0.7,1.1c0.9,5.9,4.1,11.3,8.8,15.1l1,0.8v0c5.5,4.3,12.7,6,19.6,4.7c6.9-1.4,12.9-5.6,16.3-11.7l3.5-6.1l0,0
		c2.9-4.9,4.1-10.6,3.4-16.2c-0.8-5.6-3.4-10.8-7.5-14.7c-3.5-3.2-7.8-5.2-12.5-6c-4.6-0.7-9.4-0.1-13.7,1.9
		c-0.2,0.1-0.5,0.1-0.7-0.1c-0.2-0.1-0.3-0.4-0.3-0.6c0.5-8.1-3.2-15.9-9.8-20.6c-6.6-4.8-15.1-5.8-22.6-2.8
		c-3.5,0.6-2.8-2.5-2.8-2.5h0c2.5-6.1,2.4-13-0.4-19c-2.8-6-7.9-10.6-14.1-12.6c-6.3-2.1-13.1-1.4-18.9,1.8
		c-2.7,0.4-2.3-2.1-2.3-2.1l0,0c3-5.3,3.8-11.6,2.2-17.5C204.1,419.3,200.3,414.2,195.2,411L195.2,411z M685.2,249.5l-2.3-7.1
		c-2.2-6.5-6.4-12.2-12-16.3c-5.6-4-12.4-6.2-19.3-6.2h-77.7c-10.2,0-20.3-1.9-29.8-5.5l-146.2-56c-29.5-11.2-62.6-6.5-87.7,12.6
		l-91.8,69.7v0c-4.4,4-6.4,9.8-5.5,15.7c0.9,5.8,4.7,10.8,10.1,13.2c16.5,7.2,35.4,6.2,51.1-2.5l78.1-43.7
		c5.9-3.2,13.3-1.8,17.6,3.3l170.3,207h0c0.7,0.9,1.8,1.5,2.9,1.6c1.1,0.1,2.3-0.2,3.2-0.9l7.1-5.9c3.6-2.9,8-4.5,12.6-4.5h55.3
		c-16.2,59.5-51.5,112-100.5,149.4c-49,37.5-108.9,57.8-170.5,57.9c-61.6,0.1-121.6-20-170.7-57.3l15.6-19.4c2.5-3,3.1-7.1,1.6-10.7
		c-1.5-3.6-4.8-6.1-8.7-6.5l-107.9-11c-3.6-0.4-7.2,1.1-9.5,4c-2.3,2.9-2.9,6.7-1.7,10.2l33.3,103.2c1.4,3.6,4.5,6.2,8.3,6.7
		c3.8,0.6,7.6-1,10-4l15.8-19.6c58.7,45.2,130.1,70.7,204.2,72.7s146.8-19.5,207.8-61.5c61-42,107.2-102.2,131.7-172.1
		C704.6,396.3,706.4,320.4,685.2,249.5L685.2,249.5z"/>
</g>
</svg>
