<?xml version="1.0" encoding="utf-8"?>
<!-- Generator: Adobe Illustrator 26.0.1, SVG Export Plug-In . SVG Version: 6.00 Build 0)  -->
<svg version="1.1" id="Capa_1" xmlns="http://www.w3.org/2000/svg" xmlns:xlink="http://www.w3.org/1999/xlink" x="0px" y="0px"
	 viewBox="0 0 700 700" style="enable-background:new 0 0 700 700;" xml:space="preserve">
<style type="text/css">
	.st0{fill:#FFFFFF;}
</style>
<path class="st0" d="M526.9,131.9c5.1-3.8,9.9-7.6,14.6-11.4c5,3.1,10.8,5,17,5c17.8,0,32.3-14.5,32.3-32.3c0-6.1-1.9-12-5.1-17.1
	c15.4-21.3,19.7-39.7,12.5-54.7C590,4.3,568.7-4.4,535.1-4.4c-25.6,0-57.7,5.2-93.4,14.9c-14.2-88.1-42.7-140.4-77.2-140.4
	c-33.6,0-61.8,50.6-76.4,135.8c-16.9-5.2-32.7-9.2-47.2-12c-2.6-15.2-15.8-26.9-31.8-26.9c-14.2,0-26.2,9.3-30.5,22.2
	c-21.5,2.2-36,9.8-43,22.7c-14.1,26.6,10.1,67.6,66.5,113.3C144,168.7,118,208.5,131,235.7c8.2,17.1,29.5,25.8,63.1,25.8
	c25.6,0,57.7-5.2,93.4-14.9c2.6,15.8,5.6,30.5,9.1,43.9c-7.8,6-12.7,15.4-12.7,25.7c0,17.8,14.5,32.3,32.3,32.3c0.5,0,1-0.1,1.5-0.1
	c13.5,25.6,29.3,38.7,47,38.7c33.8,0,62-50.6,76.4-136c37.1,11.4,70,17.5,95.6,17.5c29.4,0,48.5-7.9,56.8-23.4
	C612,210.3,564.2,162.2,526.9,131.9L526.9,131.9z M578.8,30.8c3.3,6.9-0.3,18.3-9.9,31.9c-1.1-0.4-2.3-0.6-3.5-0.9
	c-0.5-0.1-1-0.3-1.5-0.4c-1.8-0.3-3.6-0.5-5.4-0.5c-17.6,0-31.8,14.1-32.2,31.6c0,0.3-0.1,0.5-0.1,0.8c0,3.8,0.6,7.4,1.8,10.7
	c-5.9,4.8-12.3,9.6-18.7,14.3c-18.2-13.6-38.3-26.9-60.1-39.8c-1-16.1-2.5-31.6-4.4-46.4c34.9-9.7,66.1-14.9,90.4-14.9
	C558.7,17.2,574.6,22.1,578.8,30.8L578.8,30.8z M390.4,209.6c3.4-1.5,6.9-3.1,10.7-4.8c8.3-3.8,16.8-7.9,25.4-12.2
	c-0.8,10.2-1.9,20-3.1,29.7C412.4,218.5,401.4,214.2,390.4,209.6L390.4,209.6z M305.4,218.9c-1.1-8.8-2-17.9-2.8-27.3
	c7.1,3.9,14.5,7.8,22.3,11.8c3.6,1.8,7.1,3.4,10.7,5.1C325.4,212.3,315.3,215.8,305.4,218.9L305.4,218.9z M339,47.5
	c-3.4,1.5-6.9,3.1-10.7,4.8c-8.6,3.9-17.1,8.1-25.5,12.3c0.8-10.2,1.9-20.1,3.1-29.8C316.9,38.7,328,42.9,339,47.5L339,47.5z
	 M278.8,152.8c-14.4-8.9-27.8-17.9-40.1-26.8c12.5-8.3,25.9-16.5,40.1-24.5c-0.3,8.9-0.5,17.9-0.5,27.1
	C278.5,136.6,278.6,144.7,278.8,152.8L278.8,152.8z M334.7,184.2c-12.2-6.3-23.3-12.3-33.8-18.3c-0.6-12.7-0.9-25-0.9-37.3
	c0-13.3,0.4-26.3,1-38.9c11.8-6.2,23.9-12.2,36.2-17.8c11.3-5.1,20.6-9.1,29-12.6c9.3,4.3,18.8,8.8,28.3,13.6
	c12.2,6.3,23.3,12.3,33.8,18.3c0.6,12.7,0.9,25.2,0.9,37.4c0,13.3-0.4,26.3-1,38.9c-12.5,6.5-24.5,12.4-36.1,17.7
	c-11.3,5.1-20.6,9.1-29,12.6C353.7,193.5,344.2,188.9,334.7,184.2L334.7,184.2z M423.8,38.4c1.1,8.8,2,17.8,2.7,27.1
	c-7.1-3.9-14.5-7.8-22.3-11.8c-3.5-1.8-6.9-3.3-10.4-5C403.9,45,413.9,41.6,423.8,38.4L423.8,38.4z M450.4,104.3
	c14.2,8.8,27.6,17.8,40.1,26.8c-12.8,8.5-26.2,16.7-40.2,24.6c0.3-8.9,0.5-17.9,0.5-27.1C450.8,120.7,450.6,112.5,450.4,104.3
	L450.4,104.3z M364.6-108.3c18.6,0,43.5,43,56.3,125.1c-18,5.6-36.1,12-54.2,19.2c-19.1-8.6-38.5-16.2-57.8-23
	C322-66.6,346.5-108.3,364.6-108.3L364.6-108.3z M154.8,22.1c3.1-5.8,11.6-9.7,24.3-11.2c0.1,0.2,0.2,0.5,0.3,0.7
	c0.2,0.4,0.4,0.8,0.6,1.2c0.6,1.4,1.3,2.7,2.2,4c0.3,0.4,0.5,0.8,0.8,1.2c0.9,1.3,2,2.6,3.1,3.8c0.2,0.2,0.4,0.4,0.6,0.6
	c1.4,1.4,2.9,2.6,4.5,3.7c0.2,0.1,0.4,0.2,0.6,0.4c1.4,0.9,2.8,1.7,4.4,2.4c0.5,0.2,1,0.4,1.5,0.6c1.3,0.5,2.7,0.9,4.1,1.3
	c0.6,0.1,1.1,0.3,1.7,0.4c1.9,0.4,3.8,0.6,5.8,0.6c0,0,0.1,0,0.1,0s0.1,0,0.1,0c1.7,0,3.4-0.2,5.1-0.5c0.6-0.1,1.1-0.2,1.6-0.3
	c1.2-0.2,2.3-0.6,3.4-0.9c0.6-0.2,1.1-0.4,1.7-0.6c1.2-0.5,2.4-1,3.5-1.7c0.3-0.2,0.7-0.3,1-0.5c1.4-0.8,2.7-1.7,3.9-2.7
	c0.5-0.4,0.9-0.8,1.4-1.2c0.8-0.7,1.5-1.4,2.2-2.2c0.4-0.5,0.9-1,1.3-1.5c0.7-0.9,1.4-1.9,2-2.9c0.2-0.4,0.5-0.8,0.8-1.2
	c0-0.1,0.1-0.1,0.1-0.2C252,18,268,22.2,285.1,27.5c-2.1,15.7-3.7,32-4.8,48.8c-21.5,11.6-41.5,23.6-59.6,36
	C165.8,68.8,147.9,35.2,154.8,22.1L154.8,22.1z M150.4,226.4c-6.4-13.5,12.9-46.3,69.7-87.4c17.7,13.3,37.8,26.6,60,39.7
	c1,16.2,2.5,31.7,4.4,46.4c-34.9,9.7-66.1,14.9-90.4,14.9C170.5,240,154.6,235,150.4,226.4L150.4,226.4z M364.6,365.5
	c-8.5,0-18.1-9.1-27-25.3c0.3-0.2,0.5-0.5,0.7-0.8c1.1-1,2.1-2.2,3.1-3.4c0.3-0.4,0.7-0.8,1-1.2c1.1-1.6,2.1-3.3,3-5
	c0.2-0.5,0.4-1,0.6-1.5c0.6-1.4,1.1-2.9,1.5-4.4c0.1-0.6,0.3-1.2,0.4-1.7c0.4-2,0.7-4,0.7-6.1c0,0,0,0,0,0c0-2.5-0.4-5-0.9-7.3
	c-0.1-0.5-0.3-0.9-0.4-1.3c-0.6-2-1.3-4-2.3-5.8c-0.1-0.2-0.2-0.4-0.3-0.6c-5.3-10-15.6-16.9-27.6-17.3c-3.3-13.2-6.2-27.8-8.7-43.4
	c17.5-5.4,35.7-11.9,54.3-19.3c19.2,8.6,38.5,16.2,57.7,22.9C407.3,323.8,382.8,365.5,364.6,365.5L364.6,365.5z M574.4,235.1
	c-4.1,7.6-17.8,11.9-37.8,11.9c-24.2,0-56.1-6.1-92.4-17.6c2.1-15.6,3.8-31.8,4.8-48.6c21.1-11.4,41.1-23.5,59.6-36.1
	C563.5,188.4,581.4,222,574.4,235.1L574.4,235.1z"/>
<path class="st0" d="M5.1,214.8c-9.9,0-19.6,1.7-28.6,4.9l-95.9-191.8C-95.5,11.9-81-14.6-81-43.7c0-47.5-38.7-86.2-86.2-86.2
	s-86.2,38.7-86.2,86.2c0,29.3,14.5,55.8,38.3,71.6l-95.9,191.8c-9.1-3.2-18.8-4.9-28.6-4.9c-47.5,0-86.2,38.7-86.2,86.2
	s38.7,86.2,86.2,86.2c43.8,0,80.1-33,85.4-75.4h173.8c5.3,42.4,41.6,75.4,85.4,75.4c47.5,0,86.2-38.7,86.2-86.2
	C91.3,253.4,52.6,214.8,5.1,214.8L5.1,214.8z M-195.8,37.6c0.3,0.1,0.6,0.1,0.9,0.2c3.9,1.3,7.8,2.3,11.9,3c0.8,0.1,1.5,0.3,2.3,0.4
	c4.4,0.7,8.9,1.2,13.5,1.2s9-0.5,13.5-1.2c0.8-0.1,1.6-0.3,2.3-0.4c4.1-0.8,8.1-1.7,11.9-3.1c0.3-0.1,0.6-0.1,0.9-0.2l95.8,191.7
	c-0.2,0.1-0.4,0.3-0.6,0.5c-0.6,0.4-1.2,0.9-1.8,1.3c-2.5,1.7-4.8,3.6-7,5.6c-0.7,0.6-1.4,1.3-2.1,2c-2.1,2-4.1,4.1-6,6.2
	c-0.5,0.6-1.1,1.2-1.6,1.8c-4.6,5.7-8.5,11.9-11.5,18.5c-0.4,0.8-0.7,1.6-1,2.5c-1.1,2.5-2,5.1-2.8,7.7c-0.3,1-0.6,2.1-0.9,3.1
	c-0.7,2.8-1.3,5.6-1.8,8.4c-0.1,0.8-0.3,1.6-0.4,2.4c0,0.3-0.1,0.6-0.1,0.8H-254c0-0.3-0.1-0.5-0.1-0.8c-0.1-0.8-0.3-1.6-0.4-2.4
	c-0.5-2.8-1-5.6-1.8-8.3c-0.3-1.1-0.6-2.2-1-3.3c-0.8-2.4-1.6-4.8-2.6-7.2c-0.4-1-0.8-2.1-1.3-3.1c-1.4-3-2.9-6-4.7-8.9
	c-0.1-0.2-0.3-0.5-0.4-0.7c-1.8-2.9-3.9-5.7-6-8.4c-0.8-1-1.6-1.9-2.4-2.8c-1.5-1.8-3.2-3.5-4.9-5.1c-1-1-2-1.9-3-2.8
	c-1.8-1.6-3.7-3.1-5.7-4.6c-1-0.7-1.9-1.5-2.9-2.2c-0.2-0.1-0.3-0.3-0.5-0.4L-195.8,37.6z"/>
<g>
	<path class="st0" d="M1841.7-14.1v-115.8h-86.2v115.7c-27.4,12.2-59.7,35.1-75,65.8h233.7C1898.1,21.7,1869.8-1.5,1841.7-14.1
		L1841.7-14.1z"/>
	<path class="st0" d="M1987.2,358.2l-129.7-139.9c41.7-21.4,70.4-64.8,70.4-114.9c0-10.5-1.6-20.6-4.5-30.2h-250.4
		c-2.3,9.9-3.6,19.9-3.6,30.2c0,46.5,24.8,87.3,61.8,110l-134.3,144.8c-4,4.4-3.8,11.2,0.6,15.2c2.1,1.9,4.7,2.9,7.3,2.9
		c2.9,0,5.8-1.2,7.9-3.4l137.5-148.3c0.3-0.3,0.4-0.8,0.7-1.1c14.8,5.9,30.8,9.2,47.7,9.2c13.1,0,25.6-2,37.5-5.6l135.2,145.8
		c2.1,2.3,5,3.4,7.9,3.4c2.6,0,5.2-1,7.3-2.9C1991,369.4,1991.2,362.6,1987.2,358.2L1987.2,358.2z"/>
	<path class="st0" d="M1820.2,257.9c-5.9,0-10.8,4.8-10.8,10.8v10.7c0,16.8,6.6,32.6,18.5,44.5l11.6,11.6c2.1,2.1,4.9,3.2,7.6,3.2
		c2.8,0,5.5-1.1,7.6-3.2c4.2-4.2,4.2-11,0-15.2l-11.6-11.6c-7.8-7.8-12.1-18.2-12.1-29.3v-10.7
		C1831,262.7,1826.1,257.9,1820.2,257.9L1820.2,257.9z"/>
	<path class="st0" d="M1773.2,249.6c0,0-0.3-0.3-0.4-0.3c-4.7-3.6-11.3-2.6-14.9,2.1c-3.6,4.7-2.6,11.6,2.1,15.2
		c9,6.9,10.9,20,4.5,29.7c-5,7.6-6.7,14.8-4.9,21.4c1.1,4.2,4.2,10.2,12.7,14.4c1.5,0.8,3.2,1.1,4.8,1.1c4,0,7.8-2.2,9.6-6
		c2.7-5.3,0.5-11.8-4.8-14.4c-0.7-0.4-1.2-0.7-1.4-0.7c0.2-0.6,0.7-2,1.9-3.9C1795.2,289.2,1791.1,263.4,1773.2,249.6L1773.2,249.6z
		"/>
	<path class="st0" d="M1863.3,365.5H1834l-29.3-8.6l-49.2-0.4c-5.9,0-10.8,4.8-10.8,10.8s4.8,10.8,10.8,10.8h44.6l29.3,8.6l33.8,0.4
		c5.9,0,10.8-4.8,10.8-10.8C1874,370.4,1869.2,365.5,1863.3,365.5L1863.3,365.5z"/>
</g>
<path class="st0" d="M-1091.7,126.3c0-1.5,0.1-3,0.1-4.5c0-120.2-97.7-217.9-217.9-217.9c-56.5,0-109.4,21.3-150,60
	c-37.8-8.7-70.5-13.3-97-13.3c-39.3,0-63.8,10-72.5,29.8c-18.5,41.6,43.5,96.3,101.5,136.5l0,0.1l0.2,0.2c0,1.5-0.1,3-0.1,4.5
	c0,120.2,97.7,217.9,217.9,217.9c56.5,0,109.2-21.4,149.7-60.1l0.5,0.1l0.1-0.1c37.7,8.7,70.4,13.3,96.8,13.3
	c39.3,0,63.7-10,72.5-29.8C-971.4,221.6-1033.6,166.6-1091.7,126.3L-1091.7,126.3z M-1604.6-8.7c3.9-8.7,21.9-14,48.1-14
	c20.7,0,46.7,3.2,76.1,9.2c-3.1,4-6.1,8.1-9,12.3c-0.6,1-1.2,1.9-1.9,2.9c-2.7,4.1-5.2,8.2-7.7,12.5c-0.7,1.2-1.4,2.5-2.1,3.7
	c-5.6,10.4-10.4,21.2-14.3,32.4c-0.4,1.2-0.8,2.4-1.2,3.7c-1.6,4.9-3.1,9.9-4.4,15c-0.2,0.8-0.4,1.5-0.6,2.3c-1.2,5-2.3,10-3.1,15.1
	C-1587.9,40.3-1610.8,5.3-1604.6-8.7L-1604.6-8.7z M-1014.3,252.3c-6.9,15.6-57.8,18.4-124.4,4.6c3.2-4,6.2-8.1,9-12.3
	c0.7-1,1.3-2,1.9-3c2.8-4.2,5.4-8.4,7.8-12.8c0.6-1.1,1.2-2.1,1.8-3.2c5.8-10.7,10.7-21.8,14.7-33.3c0.3-0.7,0.5-1.5,0.7-2.2
	c1.9-5.8,3.6-11.6,5.1-17.5c0,0,0-0.1,0-0.1c1.2-5.1,2.3-10.2,3.2-15.4C-1031,203.3-1008.1,238.3-1014.3,252.3L-1014.3,252.3z"/>
<path class="st0" d="M1142,120.2c-0.7-1.4-1.7-2.7-2.9-3.9l-0.2-0.2c-0.1-0.1-0.2-0.2-0.3-0.3L927.1-79l-0.3,0.3
	c-12-12.1-25.4-18.9-39.5-18.9H740l14-13.9l-15.2-15.3l-29.4,29.2H638V-76h71.4l29.4,29.2L754-62.1L740-76h105.3
	c-31.7,34.4-53.6,106.9-55.3,193.9h-39.2l-29.4-29.2L706.3,104l14,13.9H638v21.5h82.3l-14,13.9l15.2,15.3l29.4-29.2h39.2
	c1.7,87,23.6,159.5,55.3,193.9h-62l14-13.9l-15.2-15.3l-29.4,29.2H638v21.5h114.8l29.4,29.2l15.2-15.3l-14-13.9h103.9
	c14.2,0,27.5-6.8,39.5-18.9l0.3,0.3l211.5-194.8c3.6-3.3,5.6-7.9,5.6-12.8C1144.2,125.6,1143.4,122.7,1142,120.2L1142,120.2z
	 M962.3-17.3L1109,117.8h-43.8l-29.4-29.2l-15.2,15.3l14,13.9h-50C983.5,66,975.4,19.3,962.3-17.3L962.3-17.3z M962.3,274.5
	c13.2-36.6,21.3-83.3,22.3-135.2h50l-14,13.9l15.2,15.3l29.4-29.2h43.8L962.3,274.5z"/>
<path class="st0" d="M1506.1,274.3h-51.3c48.5-27.9,81.3-80.1,81.3-140c0-22-4.5-43.1-13-63c14.3-9.7,23.8-26.1,23.8-44.7
	c0-29.7-24.1-53.8-53.8-53.8c-4.6,0-9.1,0.8-13.4,1.9l25.5-53l-26.6-12.8l8.3-17.3l-33.8-16.3l-8.3,17.3l-26.5-12.8l-94.4,195.9
	l87,41.9l33.2-68.8c8.4,18.7,27.2,31.8,49,31.8c3.5,0,6.9-0.4,10.2-1c7.4,17.3,11.4,35.7,11.4,54.9c0,77.2-62.8,140-140,140
	c-47.8,0-92.4-24.9-117.9-64.6h117.9v-21.5h-193.8v21.5h51.1c14.5,27.4,36.5,49.6,62.7,64.6h-29.9c-28.3,0-51.5,23.2-51.5,51.5V382
	h344.6v-56.2C1557.6,297.5,1534.5,274.3,1506.1,274.3L1506.1,274.3z"/>
<g>
	<path class="st0" d="M-648.7,258.4c-3.8-0.5-7.8-0.5-11.4,0c-15.4,2.2-27.7,13.7-31.3,29.4c-2.2,8.8-1.3,18.2,2.5,26.5l34.5,74.3
		l34.4-74.3c3.8-8.4,4.7-17.8,2.6-26.5C-621.2,272.1-633.5,260.6-648.7,258.4L-648.7,258.4z"/>
	<path class="st0" d="M-529.9,179.6c-2.7,29.1-7.5,60.8-14.5,94.8l82.4,27.4L-529.9,179.6z"/>
	<path class="st0" d="M-841.6,301.9l81.4-27.1c-6.9-33.8-11.6-65.3-14.1-94.3L-841.6,301.9z"/>
	<path class="st0" d="M-641.8-128.1l-5.4-3.3l-5.6,3.1c-6.4,3.7-156.8,94.1-81.5,421l1.8,8.4h18.6c-0.4-6.1,0-12.3,1.5-18.4
		c5.6-24.2,25-42.2,49.3-45.6c2.7-0.4,5.7-0.6,8.7-0.6c2.9,0,5.9,0.2,8.8,0.6c24.1,3.4,43.4,21.4,49.1,45.8c1.4,5.9,1.8,12,1.4,18.1
		h22.9l1.8-8.4C-495.1-33.9-635.8-124.4-641.8-128.1L-641.8-128.1z M-604.7,38.7c0,26-21.1,47.1-47.1,47.1s-47.1-21.1-47.1-47.1
		s21.1-47.1,47.1-47.1C-625.9-8.4-604.7,12.7-604.7,38.7z"/>
</g>
</svg>
