<svg id="fe15a32c-c6a9-47f7-98f0-a40b445678dd" data-name="Capa 1" xmlns="http://www.w3.org/2000/svg" viewBox="0 0 1818.18 2122"><defs><style>.ed0d7d9a-78c7-4fdb-85b3-de35fabbfb7a{fill:#b3857d;}.b9126a70-1b64-4d4c-a28f-7cd574730408{fill:#d1a198;}.b154692e-464f-4625-8677-790501339e43{fill:#f3c3c0;}.a39cf48c-c05d-408c-8eea-118933cf6a2d{fill:#e37882;}.a4f0d018-a887-436a-a556-abe2616d8d71{fill:#a13c55;}.b874bdf3-0a8a-4ba4-a1b4-89dd464901a3{fill:#d0a177;}.ad29b4ce-b2ad-46ec-96b8-b8643e7c5695{fill:#3e6280;}.b44122fe-5a10-4236-a841-2e2a71b4f0f3{fill:#c85464;}.ecb8f0c9-68e9-4f39-a47d-ec2ba9b85894{fill:#ecc591;}.a1158ed8-86c4-4711-991c-3243c9be8c51{fill:#f4dbc0;}.bc66e9bc-a0f5-43db-813a-e520f84836fd{fill:#e2c6ac;}.bd93881f-5056-4eae-8e81-677eabdba9bb{fill:#fce1db;}.fa08f33b-4523-465f-8b70-f6d9da99da92{fill:#93aa23;}.eb8d7641-4c18-43ba-8d16-3e3d98353da6{fill:#e8e990;}.a7e89ba7-68be-4829-9d69-a4f5b9ea096a{fill:#587028;}.fe9c5d8c-d05d-4682-bad9-46cccd5a3613{fill:#c5c0c6;}.ab916461-4cb0-4a4f-8024-5d4cbe5df0e6{fill:#dcdcde;}.afff526b-9641-428a-8e7c-5217beeab5e0{fill:#fffbf8;}.a4533437-cc99-409e-a2e8-05754d91d259{fill:#a89985;}.b8235343-0e00-474c-962b-ed72eb89ac8a{fill:#b28b5e;}.bc72888c-bc5a-4dc8-954e-dce07a0b1fab{fill:#96775a;}.b36428bc-0746-47ec-b938-7f93c70937e0{fill:#fffefc;}.bfb18bec-feab-4f43-afc5-96b20e7f5058{fill:#fdece7;}.ee6f030a-496f-4403-86b6-44193ad1a7b1{fill:#804b48;}.ba6991ff-0bc4-4750-8dba-80c1779fe0f4{fill:#d3a79c;}.eadad56c-1d4e-4779-9785-6b2e569917f4{fill:#996859;}.a87c6bdc-3d57-4a7d-839b-e9f5913b348a{fill:#a96d6f;}.be6a9e5f-af94-4094-bfde-45a20bf7f005{fill:#eaf6fe;}.b736c3fc-dfff-4bb2-9c12-0cd231a17218{fill:#fbfcf6;}</style></defs><polygon class="ed0d7d9a-78c7-4fdb-85b3-de35fabbfb7a" points="1039.79 15.99 1039.95 16.08 1039.95 195 1039.95 195.01 1039.93 195 188.79 691.67 344.04 601.08 188.79 691.67 184.96 693.91 28.03 606.38 1039.79 15.99"/><polygon class="b9126a70-1b64-4d4c-a28f-7cd574730408" points="1039.95 16.08 1687.7 377.37 1530.91 468.86 1039.95 195.01 1039.95 195 1039.95 16.08"/><polygon class="b154692e-464f-4625-8677-790501339e43" points="1039.93 195 1530.91 468.86 679.77 965.52 188.79 691.67 1039.93 195"/><path class="a39cf48c-c05d-408c-8eea-118933cf6a2d" d="M152.22,606.65,1191.86,0,1868,377.1,828.32,983.76ZM1192.17,32,208.29,606.11,828,951.77l983.88-574.12Z" transform="translate(-152.22)"/><polygon class="a4f0d018-a887-436a-a556-abe2616d8d71" points="0 808.53 0 606.65 676.1 983.76 676.1 1185.64 0 808.53"/><polygon class="b874bdf3-0a8a-4ba4-a1b4-89dd464901a3" points="42.8 1768.76 42.8 832.4 676.1 1185.64 676.1 2122 42.8 1768.76"/><polygon class="ad29b4ce-b2ad-46ec-96b8-b8643e7c5695" points="411.51 1125.84 411.51 1387.16 544.83 1464.56 544.83 1204.74 411.51 1125.84"/><polygon class="ad29b4ce-b2ad-46ec-96b8-b8643e7c5695" points="178.54 993.59 178.54 1254.91 311.85 1332.32 311.85 1072.5 178.54 993.59"/><polygon class="ad29b4ce-b2ad-46ec-96b8-b8643e7c5695" points="411.51 1501.58 411.51 1762.9 544.83 1840.3 544.83 1580.48 411.51 1501.58"/><polygon class="ad29b4ce-b2ad-46ec-96b8-b8643e7c5695" points="178.54 1369.34 178.54 1630.65 311.85 1708.05 311.85 1448.24 178.54 1369.34"/><polygon class="b44122fe-5a10-4236-a841-2e2a71b4f0f3" points="676.1 983.76 1715.73 377.1 1715.73 578.98 676.1 1185.64 676.1 983.76"/><polygon class="ecb8f0c9-68e9-4f39-a47d-ec2ba9b85894" points="676.1 1185.64 1687.7 595.34 1687.7 1531.7 676.1 2122 676.1 1185.64"/><polygon class="a1158ed8-86c4-4711-991c-3243c9be8c51" points="1666.42 935.09 1666.42 982.7 1581.2 1032.43 1581.2 984.83 1666.42 935.09"/><polygon class="a1158ed8-86c4-4711-991c-3243c9be8c51" points="1619.54 1029.53 1619.54 1077.14 1534.32 1126.86 1534.32 1079.26 1619.54 1029.53"/><polygon class="a1158ed8-86c4-4711-991c-3243c9be8c51" points="1565.3 994.35 1565.3 1041.95 1480.07 1091.68 1480.07 1044.08 1565.3 994.35"/><polygon class="a1158ed8-86c4-4711-991c-3243c9be8c51" points="1133.56 1285.43 1133.56 1333.03 1048.34 1382.76 1048.34 1335.16 1133.56 1285.43"/><polygon class="a1158ed8-86c4-4711-991c-3243c9be8c51" points="1086.68 1379.86 1086.68 1427.47 1001.46 1477.2 1001.46 1429.6 1086.68 1379.86"/><polygon class="a1158ed8-86c4-4711-991c-3243c9be8c51" points="1032.44 1344.68 1032.44 1392.29 947.22 1442.01 947.22 1394.41 1032.44 1344.68"/><polygon class="bc66e9bc-a0f5-43db-813a-e520f84836fd" points="63.96 1635.76 63.96 1683.37 149.18 1733.1 149.18 1685.5 63.96 1635.76"/><polygon class="bc66e9bc-a0f5-43db-813a-e520f84836fd" points="110.84 1730.2 110.84 1777.81 196.06 1827.54 196.06 1779.93 110.84 1730.2"/><polygon class="bc66e9bc-a0f5-43db-813a-e520f84836fd" points="165.08 1695.02 165.08 1742.62 250.3 1792.35 250.3 1744.76 165.08 1695.02"/><polygon class="bc66e9bc-a0f5-43db-813a-e520f84836fd" points="51.69 1294.63 91.99 1318.14 91.99 1365.74 51.69 1342.22 51.69 1294.63"/><polygon class="bc66e9bc-a0f5-43db-813a-e520f84836fd" points="61.01 1233.22 61.01 1280.83 146.23 1330.56 146.23 1282.96 61.01 1233.22"/><polygon class="a1158ed8-86c4-4711-991c-3243c9be8c51" points="1533.19 1587.2 1533.19 1539.59 1618.42 1489.86 1618.42 1537.46 1533.19 1587.2"/><polygon class="a1158ed8-86c4-4711-991c-3243c9be8c51" points="1580.07 1492.75 1580.07 1445.15 1665.29 1395.42 1665.29 1443.03 1580.07 1492.75"/><polygon class="a1158ed8-86c4-4711-991c-3243c9be8c51" points="1675.27 1456.43 1675.27 1504.03 1634.31 1527.94 1634.31 1480.33 1675.27 1456.43"/><polygon class="a1158ed8-86c4-4711-991c-3243c9be8c51" points="846.51 1870.33 846.51 1917.93 761.28 1967.66 761.28 1920.06 846.51 1870.33"/><polygon class="a1158ed8-86c4-4711-991c-3243c9be8c51" points="799.63 1964.77 799.63 2012.37 714.4 2062.11 714.4 2014.5 799.63 1964.77"/><polygon class="a1158ed8-86c4-4711-991c-3243c9be8c51" points="704.43 2001.09 704.43 1953.48 745.38 1929.59 745.38 1977.19 704.43 2001.09"/><polygon class="bc66e9bc-a0f5-43db-813a-e520f84836fd" points="518.63 1497.77 518.63 1545.38 603.86 1595.1 603.86 1547.5 518.63 1497.77"/><polygon class="bc66e9bc-a0f5-43db-813a-e520f84836fd" points="565.51 1592.2 565.51 1639.81 650.73 1689.54 650.73 1641.93 565.51 1592.2"/><polygon class="bc66e9bc-a0f5-43db-813a-e520f84836fd" points="660.71 1628.53 660.71 1580.92 619.75 1557.03 619.75 1604.63 660.71 1628.53"/><polygon class="bd93881f-5056-4eae-8e81-677eabdba9bb" points="1048.39 1502.16 1353.67 1324.03 1353.67 1606.61 1339.77 1614.71 1339.77 1348.22 1062.28 1510.15 1062.28 1776.64 1048.39 1784.74 1048.39 1502.16"/><polygon class="ad29b4ce-b2ad-46ec-96b8-b8643e7c5695" points="1218.74 1418.85 1339.77 1348.22 1339.77 1614.71 1218.74 1685.34 1218.74 1418.85"/><polygon class="ad29b4ce-b2ad-46ec-96b8-b8643e7c5695" points="1204.85 1426.95 1204.85 1693.44 1062.28 1776.64 1062.28 1510.15 1204.85 1426.95"/><rect class="bd93881f-5056-4eae-8e81-677eabdba9bb" x="1204.85" y="1418.85" width="13.89" height="274.59"/><polygon class="fa08f33b-4523-465f-8b70-f6d9da99da92" points="1419.53 489.98 1419.53 713.89 1004.04 956.34 1004.04 732.44 1419.53 489.98"/><polygon class="eb8d7641-4c18-43ba-8d16-3e3d98353da6" points="1004.04 956.34 977.99 936.08 977.99 712.18 1004.04 732.44 1004.04 956.34"/><polygon class="a7e89ba7-68be-4829-9d69-a4f5b9ea096a" points="1419.53 489.98 1004.04 732.44 977.99 712.18 1393.48 469.72 1419.53 489.98"/><polygon class="fe9c5d8c-d05d-4682-bad9-46cccd5a3613" points="1191.28 1977.76 1048.39 1904.76 1048.39 1784.6 1208.33 1802.02 1191.28 1977.76"/><polygon class="ab916461-4cb0-4a4f-8024-5d4cbe5df0e6" points="1460.16 1751.73 1495.67 1771.54 1191.61 1949.13 1154.95 1929.83 1460.16 1751.73"/><polygon class="afff526b-9641-428a-8e7c-5217beeab5e0" points="1495.67 1771.54 1495.67 1800.13 1191.28 1977.76 1191.28 1949.17 1495.67 1771.54"/><polygon class="ab916461-4cb0-4a4f-8024-5d4cbe5df0e6" points="1424.63 1703.33 1460.14 1723.13 1156.08 1900.71 1119.43 1881.42 1424.63 1703.33"/><polygon class="afff526b-9641-428a-8e7c-5217beeab5e0" points="1460.15 1723.13 1460.15 1751.72 1155.74 1929.35 1155.74 1900.76 1460.15 1723.13"/><polygon class="ab916461-4cb0-4a4f-8024-5d4cbe5df0e6" points="1389.11 1654.92 1424.62 1674.72 1120.56 1852.3 1083.91 1833.01 1389.11 1654.92"/><polygon class="afff526b-9641-428a-8e7c-5217beeab5e0" points="1424.62 1674.72 1424.62 1703.31 1120.22 1880.94 1120.22 1852.35 1424.62 1674.72"/><polygon class="ab916461-4cb0-4a4f-8024-5d4cbe5df0e6" points="1353.58 1606.5 1389.09 1626.31 1085.03 1803.89 1048.39 1784.6 1353.58 1606.5"/><polygon class="afff526b-9641-428a-8e7c-5217beeab5e0" points="1389.1 1626.31 1389.1 1654.9 1084.69 1832.52 1084.69 1803.93 1389.1 1626.31"/><polygon class="a4533437-cc99-409e-a2e8-05754d91d259" points="1430.18 1203.25 1430.18 1481.52 1441.39 1487.9 1590.08 1122.86 1578.87 1116.47 1430.18 1203.25"/><polygon class="ad29b4ce-b2ad-46ec-96b8-b8643e7c5695" points="1577.71 1144.4 1577.71 1394.03 1453.76 1466.36 1453.76 1216.73 1577.71 1144.4"/><path class="bd93881f-5056-4eae-8e81-677eabdba9bb" d="M1593.61,1209.62V1487.9l148.7-86.77V1122.86Zm134.8,183.53-53.5,31.23V1178.27l53.5-31.22Zm-120.9-175.55,53.5-31.22v246.1l-53.5,31.22Z" transform="translate(-152.22)"/><path class="bd93881f-5056-4eae-8e81-677eabdba9bb" d="M556.52,1112.16v278.27l148.69,86.77V1198.93ZM691.32,1453l-53.51-31.23v-246.1l53.51,31.22ZM570.41,1136.34l53.51,31.23v246.1l-53.51-31.22Z" transform="translate(-152.22)"/><polygon class="b8235343-0e00-474c-962b-ed72eb89ac8a" points="404.29 1390.43 552.99 1477.2 523.7 1494.3 376.86 1406.44 404.29 1390.43"/><polygon class="bc72888c-bc5a-4dc8-954e-dce07a0b1fab" points="376.86 1406.44 377.18 1096.33 404.29 1112.16 404.29 1390.43 376.86 1406.44"/><path class="bd93881f-5056-4eae-8e81-677eabdba9bb" d="M323.07,980.43V1258.7l148.7,86.77V1067.2Zm134.8,340.85-53.5-31.22V1044l53.5,31.22ZM337,1004.62l53.5,31.23V1282L337,1250.73Z" transform="translate(-152.22)"/><polygon class="b8235343-0e00-474c-962b-ed72eb89ac8a" points="170.85 1258.7 319.54 1345.47 290.25 1362.57 143.41 1274.72 170.85 1258.7"/><polygon class="bc72888c-bc5a-4dc8-954e-dce07a0b1fab" points="143.41 1274.72 143.72 964.6 170.85 980.43 170.85 1258.7 143.41 1274.72"/><path class="bd93881f-5056-4eae-8e81-677eabdba9bb" d="M556.52,1489.22v278.27l148.69,86.77V1576Zm134.8,340.85-53.51-31.23v-246.1L691.32,1584ZM570.41,1513.41l53.51,31.22v246.11l-53.51-31.23Z" transform="translate(-152.22)"/><polygon class="b8235343-0e00-474c-962b-ed72eb89ac8a" points="404.29 1767.49 552.99 1854.26 523.7 1871.35 376.86 1783.5 404.29 1767.49"/><polygon class="bc72888c-bc5a-4dc8-954e-dce07a0b1fab" points="376.86 1783.5 377.18 1473.39 404.29 1489.22 404.29 1767.49 376.86 1783.5"/><path class="bd93881f-5056-4eae-8e81-677eabdba9bb" d="M323.07,1357.49v278.27l148.7,86.77V1444.26Zm134.8,340.85-53.5-31.23V1421l53.5,31.23ZM337,1381.68l53.5,31.22V1659L337,1627.79Z" transform="translate(-152.22)"/><polygon class="b8235343-0e00-474c-962b-ed72eb89ac8a" points="170.85 1635.76 319.54 1722.53 290.25 1739.63 143.41 1651.77 170.85 1635.76"/><polygon class="bc72888c-bc5a-4dc8-954e-dce07a0b1fab" points="143.41 1651.77 143.72 1341.66 170.85 1357.49 170.85 1635.76 143.41 1651.77"/><polygon class="b36428bc-0746-47ec-b938-7f93c70937e0" points="890.98 521.77 1022.37 598.12 887.82 675.8 756.43 599.44 890.98 521.77"/><polygon class="bfb18bec-feab-4f43-afc5-96b20e7f5058" points="887.82 675.8 888.11 734.12 756.43 657.6 756.43 599.45 887.82 675.8"/><polygon class="ee6f030a-496f-4403-86b6-44193ad1a7b1" points="887.82 675.8 1022.37 598.12 1022.37 656.61 888.11 734.12 887.82 675.8"/><polygon class="b36428bc-0746-47ec-b938-7f93c70937e0" points="699.2 393.63 830.59 469.99 696.05 547.67 564.65 471.31 699.2 393.63"/><polygon class="bfb18bec-feab-4f43-afc5-96b20e7f5058" points="696.05 547.67 696.33 605.99 564.65 529.47 564.65 471.31 696.05 547.67"/><polygon class="ee6f030a-496f-4403-86b6-44193ad1a7b1" points="696.05 547.67 830.59 469.99 830.59 528.48 696.33 605.99 696.05 547.67"/><polygon class="b36428bc-0746-47ec-b938-7f93c70937e0" points="643.24 664.84 774.62 741.19 640.08 818.87 508.7 742.51 643.24 664.84"/><polygon class="bfb18bec-feab-4f43-afc5-96b20e7f5058" points="640.08 818.87 640.36 877.19 508.7 800.67 508.7 742.51 640.08 818.87"/><polygon class="ee6f030a-496f-4403-86b6-44193ad1a7b1" points="640.08 818.87 774.62 741.19 774.62 799.68 640.36 877.19 640.08 818.87"/><polygon class="b36428bc-0746-47ec-b938-7f93c70937e0" points="451.46 536.7 582.85 613.06 448.3 690.73 316.92 614.38 451.46 536.7"/><polygon class="bfb18bec-feab-4f43-afc5-96b20e7f5058" points="448.3 690.73 448.59 749.06 316.92 672.54 316.92 614.38 448.3 690.73"/><polygon class="ee6f030a-496f-4403-86b6-44193ad1a7b1" points="448.3 690.73 582.85 613.06 582.85 671.55 448.59 749.06 448.3 690.73"/><polygon class="a4533437-cc99-409e-a2e8-05754d91d259" points="818.73 1560.03 818.73 1838.3 829.94 1844.68 978.63 1479.64 967.42 1473.27 818.73 1560.03"/><polygon class="ad29b4ce-b2ad-46ec-96b8-b8643e7c5695" points="966.27 1501.19 966.27 1750.82 842.31 1823.14 842.31 1573.52 966.27 1501.19"/><path class="bd93881f-5056-4eae-8e81-677eabdba9bb" d="M982.16,1566.41v278.27l148.7-86.77V1479.64ZM1117,1749.94l-53.5,31.22v-246.1l53.5-31.23Zm-120.9-175.55,53.5-31.23v246.11l-53.5,31.23Z" transform="translate(-152.22)"/><polygon class="ee6f030a-496f-4403-86b6-44193ad1a7b1" points="928.91 410.1 929.15 446.22 1129.86 330.34 1129.62 294.22 928.91 410.1"/><polygon class="b36428bc-0746-47ec-b938-7f93c70937e0" points="1018.81 229.82 1129.62 294.22 928.91 410.1 818.1 345.7 1018.81 229.82"/><polygon class="bfb18bec-feab-4f43-afc5-96b20e7f5058" points="928.91 410.1 929.15 446.22 818.1 381.68 818.1 345.7 928.91 410.1"/><polygon class="ba6991ff-0bc4-4750-8dba-80c1779fe0f4" points="1007.63 276.35 1067.89 309.96 929.15 389.78 868.88 356.17 1007.63 276.35"/><polygon class="eadad56c-1d4e-4779-9785-6b2e569917f4" points="1087.14 298.73 1067.89 309.96 1007.63 276.35 1007.63 254.38 1087.14 298.73"/><polygon class="a87c6bdc-3d57-4a7d-839b-e9f5913b348a" points="849.16 345.7 1007.61 254.37 1007.63 254.38 1007.63 276.35 868.88 356.17 868.41 356.44 849.16 345.7"/><polygon class="ee6f030a-496f-4403-86b6-44193ad1a7b1" points="1062.14 486.1 1062.39 522.22 1263.09 406.34 1262.85 370.22 1062.14 486.1"/><polygon class="b36428bc-0746-47ec-b938-7f93c70937e0" points="1152.04 305.82 1262.85 370.22 1062.14 486.1 951.33 421.7 1152.04 305.82"/><polygon class="bfb18bec-feab-4f43-afc5-96b20e7f5058" points="1062.14 486.1 1062.39 522.22 951.33 457.68 951.33 421.7 1062.14 486.1"/><polygon class="ba6991ff-0bc4-4750-8dba-80c1779fe0f4" points="1140.86 352.35 1201.13 385.96 1062.39 465.79 1002.12 432.17 1140.86 352.35"/><polygon class="eadad56c-1d4e-4779-9785-6b2e569917f4" points="1220.37 374.73 1201.13 385.96 1140.86 352.35 1140.86 330.39 1220.37 374.73"/><polygon class="a87c6bdc-3d57-4a7d-839b-e9f5913b348a" points="982.39 421.7 1140.85 330.37 1140.86 330.39 1140.86 352.35 1002.12 432.17 1001.65 432.44 982.39 421.7"/><path class="b44122fe-5a10-4236-a841-2e2a71b4f0f3" d="M1038,1224.53l-93.21,53.83.33,114.38c.09,29.58,21,41.52,46.78,26.65s46.51-50.89,46.43-80.47Z" transform="translate(-152.22)"/><path class="be6a9e5f-af94-4094-bfde-45a20bf7f005" d="M1131.2,1170.74,1038,1224.53l.33,114.39c.08,29.58,21,41.53,46.78,26.66s46.49-50.88,46.44-80.45Z" transform="translate(-152.22)"/><path class="b44122fe-5a10-4236-a841-2e2a71b4f0f3" d="M1224.41,1116.92l-93.21,53.82.34,114.39c0,29.57,21,41.5,46.77,26.65s46.51-50.91,46.42-80.47Z" transform="translate(-152.22)"/><path class="be6a9e5f-af94-4094-bfde-45a20bf7f005" d="M1317.61,1063.1l-93.2,53.82.32,114.39c.09,29.56,21,41.51,46.77,26.65s46.52-50.89,46.43-80.46Z" transform="translate(-152.22)"/><path class="b44122fe-5a10-4236-a841-2e2a71b4f0f3" d="M1410.82,1009.29l-93.21,53.81.32,114.4c.09,29.57,21,41.5,46.79,26.65s46.52-50.89,46.42-80.47Z" transform="translate(-152.22)"/><path class="be6a9e5f-af94-4094-bfde-45a20bf7f005" d="M1504,955.47l-93.22,53.82.32,114.39c.1,29.58,21,41.53,46.8,26.67s46.49-50.92,46.4-80.47Z" transform="translate(-152.22)"/><path class="b44122fe-5a10-4236-a841-2e2a71b4f0f3" d="M1597.23,901.67,1504,955.47l.3,114.41c.09,29.55,21.05,41.52,46.78,26.63s46.52-50.89,46.43-80.47Z" transform="translate(-152.22)"/><path class="be6a9e5f-af94-4094-bfde-45a20bf7f005" d="M1690.43,847.86l-93.2,53.81.32,114.37c.09,29.58,21.06,41.53,46.78,26.68s46.51-50.89,46.42-80.47Z" transform="translate(-152.22)"/><path class="b44122fe-5a10-4236-a841-2e2a71b4f0f3" d="M1783.64,794l-93.21,53.82.32,114.39c.09,29.58,21,41.51,46.79,26.65S1784.05,938,1784,908.43Z" transform="translate(-152.22)"/><path class="be6a9e5f-af94-4094-bfde-45a20bf7f005" d="M1876.85,740.22,1783.64,794l.33,114.39c.08,29.58,21,41.51,46.79,26.65s46.49-50.89,46.41-80.47Z" transform="translate(-152.22)"/><path class="b44122fe-5a10-4236-a841-2e2a71b4f0f3" d="M1970.07,686.43l-93.22,53.79.32,114.39c.08,29.58,21,41.53,46.79,26.68s46.48-50.92,46.42-80.49Z" transform="translate(-152.22)"/><polygon class="a39cf48c-c05d-408c-8eea-118933cf6a2d" points="1072.18 1121.71 1072.18 1121.78 979 1176.16 978.86 1176.23 975.07 1173 862.46 1076.38 955.78 1021.94 1068.88 1118.84 1072.18 1121.71"/><polygon class="b736c3fc-dfff-4bb2-9c12-0cd231a17218" points="1165.36 1067.55 1072.25 1121.78 1072.18 1121.78 1072.18 1121.71 1068.88 1118.84 955.78 1021.94 1048.82 967.63 1162.27 1064.88 1165.36 1067.55"/><polygon class="a39cf48c-c05d-408c-8eea-118933cf6a2d" points="1258.61 1013.17 1165.36 1067.55 1162.27 1064.88 1048.82 967.63 1142.07 913.25 1255.94 1010.85 1258.61 1013.17"/><polygon class="b736c3fc-dfff-4bb2-9c12-0cd231a17218" points="1351.79 958.86 1258.61 1013.17 1255.94 1010.85 1142.07 913.25 1235.25 858.88 1349.47 956.82 1351.79 958.86"/><polygon class="a39cf48c-c05d-408c-8eea-118933cf6a2d" points="885.12 1230.82 792.57 1284.78 792.43 1284.85 676.1 1185.14 768.79 1131.04 880.98 1227.24 885.12 1230.82"/><polygon class="b736c3fc-dfff-4bb2-9c12-0cd231a17218" points="978.86 1176.23 885.75 1230.47 885.12 1230.82 880.98 1227.24 768.79 1131.04 862.46 1076.38 975.07 1173 978.86 1176.23"/><polygon class="b736c3fc-dfff-4bb2-9c12-0cd231a17218" points="1724.64 741.63 1631.39 795.93 1630.06 794.81 1514.64 695.81 1607.82 641.43 1723.66 740.79 1724.64 741.63"/><polygon class="a39cf48c-c05d-408c-8eea-118933cf6a2d" points="1631.39 795.93 1538.21 850.24 1538.15 850.31 1536.46 848.84 1421.47 750.26 1514.64 695.81 1630.06 794.81 1631.39 795.93"/><polygon class="a39cf48c-c05d-408c-8eea-118933cf6a2d" points="1818.18 687.11 1817.83 687.32 1724.64 741.63 1723.66 740.79 1607.82 641.43 1701.41 586.84 1817.54 686.55 1817.83 686.83 1818.18 687.11"/><polygon class="a39cf48c-c05d-408c-8eea-118933cf6a2d" points="1444.55 904.83 1351.79 958.86 1349.47 956.82 1235.25 858.88 1327.93 804.78 1442.52 903.08 1444.55 904.83"/><polygon class="b736c3fc-dfff-4bb2-9c12-0cd231a17218" points="1538.15 850.31 1444.97 904.55 1444.55 904.83 1442.52 903.08 1327.93 804.78 1421.47 750.26 1536.46 848.84 1538.15 850.31"/></svg>