<svg id="bea96e02-4b1b-4775-9509-b5974885b700" data-name="Capa 1" xmlns="http://www.w3.org/2000/svg" viewBox="0 0 384 512"><defs><style>.ec3838cc-bfee-417d-8afa-2d6f8ec2f3f3{fill:#fff;}</style></defs><path class="ec3838cc-bfee-417d-8afa-2d6f8ec2f3f3" d="M224,136V0H24A23.94,23.94,0,0,0,0,24V488a23.94,23.94,0,0,0,24,24H360a23.94,23.94,0,0,0,24-24V160H248A24.07,24.07,0,0,1,224,136Zm64,236a12,12,0,0,1-12,12H108a12,12,0,0,1-12-12v-8a12,12,0,0,1,12-12H276a12,12,0,0,1,12,12Zm0-64a12,12,0,0,1-12,12H108a12,12,0,0,1-12-12v-8a12,12,0,0,1,12-12H276a12,12,0,0,1,12,12Zm0-72v8a12,12,0,0,1-12,12H108a12,12,0,0,1-12-12v-8a12,12,0,0,1,12-12H276A12,12,0,0,1,288,236Zm96-114.1V128H256V0h6.1a24,24,0,0,1,17,7L377,105A23.92,23.92,0,0,1,384,121.9Z" transform="translate(0 0)"/></svg>