<?xml version="1.0" encoding="utf-8"?>
<!-- Generator: Adobe Illustrator 26.0.1, SVG Export Plug-In . SVG Version: 6.00 Build 0)  -->
<svg version="1.1" id="Capa_1" xmlns="http://www.w3.org/2000/svg" xmlns:xlink="http://www.w3.org/1999/xlink" x="0px" y="0px"
	 viewBox="0 0 700 700" style="enable-background:new 0 0 700 700;" xml:space="preserve">
<style type="text/css">
	.st0{fill:#BDBCBC;}
</style>
<g>
	<path class="st0" d="M391.2,350l92.8,92.8c11.4,11.4,11.4,29.8,0,41.2c-11.4,11.4-29.9,11.4-41.2,0L350,391.3l-92.8,92.8
		c-11.4,11.4-29.8,11.4-41.2,0c-11.4-11.4-11.4-29.9,0-41.2l92.8-92.8l-92.8-92.8c-11.4-11.4-11.4-29.8,0-41.2
		c11.4-11.4,29.9-11.4,41.2,0l92.8,92.8l92.8-92.8c11.4-11.4,29.8-11.4,41.2,0c11.4,11.4,11.4,29.9,0,41.2L391.2,350z M350,700
		C156.7,700,0,543.3,0,350S156.7,0,350,0s350,156.7,350,350S543.3,700,350,700z M350,641.7c161.1,0,291.7-130.6,291.7-291.7
		S511.1,58.3,350,58.3S58.3,188.9,58.3,350S188.9,641.7,350,641.7z"/>
</g>
</svg>
