<?xml version="1.0" encoding="utf-8"?>
<!-- Generator: Adobe Illustrator 26.0.1, SVG Export Plug-In . SVG Version: 6.00 Build 0)  -->
<svg version="1.1" id="Capa_1" xmlns="http://www.w3.org/2000/svg" xmlns:xlink="http://www.w3.org/1999/xlink" x="0px" y="0px"
	 viewBox="0 0 256 256" style="enable-background:new 0 0 256 256;" xml:space="preserve">
<style type="text/css">
	.st0{fill:#FFFFFF;}
</style>
<path class="st0" d="M128,257.6c70.5,0,128-57.5,128-128s-57.5-128-128-128S0,59.1,0,129.6S57.5,257.6,128,257.6z M128,19.3
	c60.9,0,110.4,49.5,110.4,110.4S188.9,240,128,240S17.6,190.5,17.6,129.6S67.1,19.3,128,19.3L128,19.3z"/>
<path class="st0" d="M106.7,174.3c1.7,1.4,3.7,2,5.7,2c2.3,0,4.6-0.9,6.3-2.6l74.8-75.7c3.4-3.4,3.4-9.1,0-12.5
	c-3.4-3.4-9.1-3.4-12.5,0l-69.1,70l-29.6-25c-3.7-3.1-9.4-2.6-12.5,1.1c-3.1,3.7-2.6,9.4,1.1,12.5L106.7,174.3z"/>
</svg>
