<?xml version="1.0" encoding="utf-8"?>
<!-- Generator: Adobe Illustrator 26.0.1, SVG Export Plug-In . SVG Version: 6.00 Build 0)  -->
<svg version="1.1" id="Capa_1" xmlns="http://www.w3.org/2000/svg" xmlns:xlink="http://www.w3.org/1999/xlink" x="0px" y="0px"
	 viewBox="0 0 512 512" style="enable-background:new 0 0 512 512;" xml:space="preserve">
<style type="text/css">
	.st0{fill:#FFFFFF;}
</style>
<path class="st0" d="M256,328c-39.8,0-72-32.2-72-72s32.2-72,72-72s72,32.2,72,72S295.8,328,256,328z M328,432c0-39.8-32.2-72-72-72
	s-72,32.2-72,72s32.2,72,72,72S328,471.8,328,432z M328,80c0-39.8-32.2-72-72-72s-72,32.2-72,72s32.2,72,72,72S328,119.8,328,80z"/>
</svg>
