<svg xmlns="http://www.w3.org/2000/svg" viewBox="0 0 174.86 87.43"><defs><style>.b9fea232-4ade-4e59-9f0f-c993291bc500{fill:#fff;}</style></defs><g id="a3a04f5d-e11e-4055-ae45-ec66812222fd" data-name="Capa 2"><g id="b43e76b0-157f-4131-b35c-e31cbb5b3b93" data-name="Capa 1"><path class="b9fea232-4ade-4e59-9f0f-c993291bc500" d="M131.14,0H43.71A43.72,43.72,0,1,0,75.24,74H99.62A43.71,43.71,0,1,0,131.14,0ZM68,47.41A2.63,2.63,0,0,1,65.41,50H50.24V65.21a2.64,2.64,0,0,1-2.64,2.64H40.22a2.64,2.64,0,0,1-2.64-2.64V50H22.42a2.64,2.64,0,0,1-2.64-2.63V40a2.64,2.64,0,0,1,2.64-2.64H37.58V22.22a2.64,2.64,0,0,1,2.64-2.64H47.6a2.64,2.64,0,0,1,2.64,2.64V37.38H65.41A2.64,2.64,0,0,1,68,40Zm59.54,23.2a11.47,11.47,0,1,1,11.47-11.47A11.47,11.47,0,0,1,127.58,70.61Zm17.8-26.5a11.47,11.47,0,1,1,11.47-11.47A11.47,11.47,0,0,1,145.38,44.11Z"/></g></g></svg>