<?xml version="1.0" encoding="utf-8"?>
<!-- Generator: Adobe Illustrator 26.0.1, SVG Export Plug-In . SVG Version: 6.00 Build 0)  -->
<svg version="1.1" id="Capa_1" xmlns="http://www.w3.org/2000/svg" xmlns:xlink="http://www.w3.org/1999/xlink" x="0px" y="0px"
	 viewBox="0 0 200 300" style="enable-background:new 0 0 200 300;" xml:space="preserve">
<style type="text/css">
	.st0{fill:#DCDCDC;}
	.st1{fill:#FFFFFF;stroke:#B2B2B2;stroke-miterlimit:10;}
	.st2{fill:#6B6B6A;}
</style>
<path class="st0" d="M178.2,290.6H21.8c-8.6,0-15.5-7-15.5-15.5V25c0-8.6,7-15.5,15.5-15.5h156.3c8.6,0,15.5,7,15.5,15.5v250
	C193.7,283.6,186.8,290.6,178.2,290.6z"/>
<path class="st1" d="M99.9,125.9L99.9,125.9c-19.7,0-35.6-16-35.6-35.6v0c0-19.7,16-35.6,35.6-35.6h0c19.7,0,35.6,16,35.6,35.6v0
	C135.5,110,119.5,125.9,99.9,125.9z"/>
<path class="st1" d="M146,290.6H53.7V170.4c0-20,16.2-36.1,36.1-36.1h21.1c19.4,0,35.1,15.7,35.1,35.1V290.6z"/>
<g>
	<path class="st2" d="M126.8,181.9c0,6.9-3.3,13.3-9.8,19.2c-2,1.7-4,3.4-6,5.1c-2.8,2.5-5,5.3-6.7,8.3c-0.8,1.4-1.7,5.2-2.9,11.2
		c-0.9,5.1-3.3,7.7-7.1,7.7c-4.3,0-6.4-2.8-6.4-8.4c0-4.6,1.2-9.4,3.7-14.3c2.5-4.9,5.6-8.8,9.4-11.8c4.7-3.7,7.7-6.3,9.1-7.9
		c2.3-2.7,3.4-5.7,3.4-9c0-3.5-1.4-6.4-4.2-8.7c-2.8-2.3-6.4-3.5-10.9-3.5c-3,0-6.2,1.2-9.6,3.6c-3.4,2.4-5.7,3.6-7,3.6
		c-1.5,0-2.8-0.6-3.9-1.9c-1.1-1.2-1.6-2.7-1.6-4.5c0-3,2.1-5.8,6.4-8.2c4.6-2.7,10.1-4,16.7-4c8.4,0,15.1,2.1,20.1,6.4
		C124.3,169.2,126.8,174.8,126.8,181.9z M105.5,248.7c0,2.7-0.9,4.9-2.7,6.6c-1.8,1.7-4.2,2.6-7.1,2.6c-2.8,0-5.2-0.8-6.9-2.5
		c-1.8-1.7-2.7-3.8-2.7-6.5c0-2.8,0.9-5,2.8-6.8c1.9-1.8,4.2-2.7,7.1-2.7c2.8,0,5.1,0.9,6.9,2.6C104.6,243.7,105.5,246,105.5,248.7z
		"/>
</g>
</svg>
