<?xml version="1.0" encoding="utf-8"?>
<!-- Generator: Adobe Illustrator 26.0.1, SVG Export Plug-In . SVG Version: 6.00 Build 0)  -->
<svg version="1.1" id="Capa_1" xmlns="http://www.w3.org/2000/svg" xmlns:xlink="http://www.w3.org/1999/xlink" x="0px" y="0px"
	 viewBox="0 0 700 700" style="enable-background:new 0 0 700 700;" xml:space="preserve">
<style type="text/css">
	.st0{fill:#FFFFFF;}
</style>
<g>
	<path class="st0" d="M25.1,600.4c27.3,46.8,77.3,75.6,131.5,75.7h386.8C597.7,675.9,647.8,647,675,600c2.2-2.6,3.8-5.6,4.8-8.8
		c10.8-21.1,16.6-44.5,16.7-68.2V296.1c-0.2-8.9-1.7-17.8-4.4-26.2c-0.4-3.1-1.4-6.1-3-8.8c-5.7-13.3-14.5-24.9-25.8-34L445.7,53
		c-27.1-21.9-60.9-33.8-95.7-33.8S281.4,31.1,254.3,53L36.8,227c-11.3,9-20.1,20.7-25.8,34c-1.4,2.5-2.4,5.3-2.8,8.2
		c-2.9,8.7-4.5,17.7-4.7,26.9V523c0.2,23.7,5.9,47,16.7,68.1C21.1,594.5,22.8,597.7,25.1,600.4L25.1,600.4z M203.7,401.3l-150.1,140
		c-1.2-6-1.8-12.2-1.8-18.3V312.8L203.7,401.3z M543.4,627.7H156.6c-32-0.1-62.1-14.9-81.7-40.1l203.7-190.2v0
		c19.4-18.2,44.9-28.3,71.5-28.3s52.1,10.1,71.5,28.3l203.6,190.2l0,0C605.5,612.9,575.4,627.6,543.4,627.7L543.4,627.7z M648.2,523
		c-0.1,6.2-0.7,12.3-1.9,18.3L496.2,401.2l151.9-88.4L648.2,523z M284.5,90.6c18.5-15,41.6-23.1,65.5-23.1
		c23.8,0,46.9,8.2,65.5,23.1L633,264.6c0.3,0.2,0.4,0.5,0.7,0.6L459.4,366.7l-4.8-4.5c-28.3-26.6-65.7-41.4-104.5-41.4
		c-38.8,0-76.2,14.8-104.5,41.4l-4.9,4.6L66.3,265.3c0.3-0.2,0.4-0.5,0.6-0.6L284.5,90.6z"/>
</g>
</svg>
