<?xml version="1.0" encoding="utf-8"?>
<!-- Generator: Adobe Illustrator 26.0.1, SVG Export Plug-In . SVG Version: 6.00 Build 0)  -->
<svg version="1.1" id="Capa_1" xmlns="http://www.w3.org/2000/svg" xmlns:xlink="http://www.w3.org/1999/xlink" x="0px" y="0px"
	 viewBox="0 0 700 700" style="enable-background:new 0 0 700 700;" xml:space="preserve">
<style type="text/css">
	.st0{fill:#FFFFFF;}
</style>
<g>
	<path class="st0" d="M16.9,621.3l209.7,74.8V381c-1.4,0-2.8,0-4.1,0.1c-7.7,0.3-14.3-5.5-14.7-13.2v-0.7c-0.1-7.4,5.7-13.6,13.2-14
		c1.8-0.1,3.6-0.3,5.6-0.1v-86.4h-31.5c-7.7,0-14-6.3-14-14s6.3-14,14-14h31.5v-115L26.3,52.2c-4.2-1.5-9-0.8-12.7,1.7
		c-3.6,2.6-5.9,6.9-5.9,11.5v542.7C7.7,614,11.3,619.3,16.9,621.3L16.9,621.3z M197.9,459.7c5.9,2,9.8,7.3,9.8,13.3
		c0,1.4-0.3,2.9-0.7,4.2c-1.8,5.9-7.1,9.8-13.3,9.8c-1.4,0-2.8-0.1-4.2-0.6c-0.1,0-0.3-0.1-0.4-0.1c-0.4-0.1-1-0.3-1.4-0.4
		c-11.8-3.9-28-12-39.4-28.6v-0.1c-2.1-3.1-2.8-6.7-2.1-10.4c0.7-3.6,2.8-6.7,5.9-8.8c6.2-4.2,15.3-2.5,19.5,3.6
		c5,7.6,14.4,14.1,24.9,17.7L197.9,459.7z M174.8,366c6.4-3.8,15.4-1.3,19,5.2c3.9,6.6,1.7,15.3-5,19c-1.4,0.8-2.8,1.7-4.1,2.7
		c-7.3,5-13.3,13-16.2,21.3c-2,5.6-7.3,9.4-13.2,9.4c-1.7,0-3.2-0.3-4.8-0.8c-5.5-2-9.2-7.3-9.2-13c0-1.7,0.1-3.4,0.7-4.9
		c5-13.9,14.4-26.3,26.6-34.9C170.7,368.5,172.8,367.1,174.8,366L174.8,366z M102.4,218.2c0-7.7,6.3-14,14-14s14,6.3,14,14v20.9
		c0.6-0.1,1.1-0.4,1.8-0.4h20.9h0.1c7.7,0,14,6.3,14,14c0,3.5-1.4,6.7-3.6,9.2c-2.5,2.8-6.2,4.8-10.4,4.8h-21
		c-0.7,0-1.3-0.3-1.8-0.4v23.2c0,7.7-6.3,14-14,14s-14-6.3-14-14L102.4,218.2z"/>
	<path class="st0" d="M445.4,489.1c-16,2.8-31.8,3.5-42.4,3.6h-0.1c-7.7,0-14-6.2-14.1-13.7c-0.1-7.7,6-14.1,13.7-14.3
		c16.1-0.3,28.6-1.4,39.4-3.4c1.3-0.3,2.5-0.3,3.6-0.1V55.6l-190.8,68.1v231.1c3.5,0.3,6.7,0.6,9.8,0.8c3.6,0.1,7.1,1.8,9.7,4.6
		c2.4,2.8,3.6,6.4,3.5,10.1c-0.6,7.4-6.6,13.2-14,13.2h-0.8c-2.7-0.1-5.5-0.4-8.1-0.7v81.7H277c7.7,0,14,6.3,14,14.1
		c-0.1,7.7-6.4,13.9-14,13.9h-22.4v203.6L445.4,628L445.4,489.1z M273,270.9h-0.1c-3.4-1.4-6-4.1-7.6-7.4c-1.4-3.5-1.4-7.3-0.1-10.8
		c2.8-7,11.2-10.6,18.2-7.8c15.8,6.4,29,16.9,38.2,30.4c0.1,0.3,0.3,0.4,0.4,0.7l0.1,0.1c1.4,2.4,2.2,5,2.2,7.7
		c0,4.8-2.4,9-6.3,11.6c-2.2,1.5-4.9,2.4-7.7,2.4c-4.6,0-9-2.4-11.6-6.3C292.7,282.5,283.6,275.1,273,270.9L273,270.9z M292.4,369
		c-2-2.5-2.9-5.5-3.1-8.7c0-4.3,2-8.3,5.3-11.1c6.9-5.3,11.5-15.4,12.2-26.8v-0.1c0.6-7.6,7.6-13.3,15-12.9c7.7,0.4,13.4,7.1,13,15
		c-1.4,19.3-9.4,35.9-22.4,46.5l-0.3,0.3c-2.5,2-5.6,2.9-8.8,2.9C299.2,374.2,295.1,372.4,292.4,369L292.4,369z M360.8,492.9
		c-14-0.1-28-0.1-42-0.3c-3.6,0-7.3-1.4-9.8-4.1c-2.7-2.7-4.1-6.2-4.1-9.9c0-7.7,6.3-14,14-14l41.9,0.3c7.7,0,14,6.3,14,14
		C374.8,486.6,368.5,492.9,360.8,492.9L360.8,492.9z"/>
	<path class="st0" d="M678.3,700c2.9,0,5.7-0.8,8.1-2.5c3.8-2.7,5.9-6.9,5.9-11.5l0-542.7c0-1.4-0.1-2.8-0.6-4.1
		c-17.1,42.6-48.2,91.9-69.3,123.3c-8.3,11.8-21.1,18.5-34.9,18.5c-13.7,0-26.6-6.7-34.5-17.9c-26.9-39.8-69-107.6-79.7-154.6v341.5
		c0.6-0.6,1.1-1,1.7-1.4c4.8-3.2,8.7-6.9,12-11.2c3.4-4.3,6-9.2,8.1-14.8c2.7-7,11.1-10.8,18.1-8.1c5.5,2.1,9,7.1,9.1,12.9
		c0,1.8-0.3,3.5-1,5.2c-3.1,8.3-7.3,15.7-12.3,22.1c-5,6.4-11.1,12.2-18.1,16.9c0,0.1,0,0.1-0.1,0.1c-2.2,1.5-5,2.4-7.8,2.4
		c-3.6,0-7-1.4-9.7-3.9v157.7l200.3,71.6C675.2,700,676.7,700,678.3,700L678.3,700z M529,386.6c0,7.7-6.3,13.9-14,13.9h-0.1
		c-7.7,0-13.9-6.4-13.9-14.1v-1.7c0-5.2-0.1-10.8-0.7-18.2c-0.3-3.8-0.6-7.4-0.8-11.2c-0.3-2.9-0.4-5.7-0.7-8.7v-1v-0.1v-0.8
		c0-7.3,5.7-13.4,13-13.9c7.4-0.7,14.3,5.2,14.8,12.7v0.3c0.1,0.1,0.1,0.4,0.1,0.7c0.1,2.8,0.4,5.5,0.6,8.3c0.4,3.9,0.7,7.8,1,11.8
		c0.6,8,0.7,14.1,0.7,20.2L529,386.6z M539.6,273.2c0,0,0,0.1-0.1,0.1c0,0.1-0.1,0.3-0.3,0.4c-3.4,4.2-5.9,8.7-7.7,13.2
		c-2.1,5.5-3.5,11.2-4.5,17.8c-1,6.9-7,12-13.9,12c-0.6,0-1.3,0-2-0.1c-7.7-1.1-13-8.3-11.9-15.8c1.3-8.8,3.2-16.7,6-24
		c2.9-7.3,7-14.3,12.2-20.7c0-0.1,0.3-0.4,0.4-0.6c0,0,0-0.1,0.1-0.1c4.6-5.6,13.7-6.4,19.6-1.8c3.2,2.7,5,6.6,5,10.8
		C542.7,267.6,541.6,270.7,539.6,273.2L539.6,273.2z"/>
	<path class="st0" d="M562.9,227.3c6.4,10.1,11.2,17.2,13,19.7l0.4,0.4c2.4,3.2,5.9,5.2,9.8,5.5c0.4,0.1,1,0.1,1.4,0.1
		c4.6,0,9-2.2,11.6-6c7.8-11.6,77-114.1,77-158.4c0-48.9-39.8-88.7-88.7-88.7c-48.9,0-88.7,39.8-88.7,88.7
		c0,34.3,41.5,103.5,63.7,138.4C562.8,227.2,562.8,227.2,562.9,227.3L562.9,227.3z"/>
</g>
</svg>
