<svg id="e07df65c-7fd3-406c-be66-eefaf75f7d68" data-name="Capa 1" xmlns="http://www.w3.org/2000/svg" viewBox="0 0 243.08 256"><defs><style>.f2a822b6-813f-44d6-a162-2270739c96be{fill:#fff;}</style></defs><path class="f2a822b6-813f-44d6-a162-2270739c96be" d="M32.34,149.83,28.3,183,7.55,236.06c-2.69,6.73-.27,14.55,5.93,18.05a10.6,10.6,0,0,0,3.77,1.35,14.15,14.15,0,0,0,15.9-8.08L44.47,220.7l5.66-36.92Z" transform="translate(-6.46)"/><path class="f2a822b6-813f-44d6-a162-2270739c96be" d="M124.77,256H166a2.71,2.71,0,0,0,2.7-2.7V233.9a2.7,2.7,0,0,0-2.7-2.69H124.77a2.7,2.7,0,0,0-2.69,2.69v19.41A2.7,2.7,0,0,0,124.77,256Z" transform="translate(-6.46)"/><path class="f2a822b6-813f-44d6-a162-2270739c96be" d="M178.67,256H219.9a2.7,2.7,0,0,0,2.69-2.7V233.9a2.7,2.7,0,0,0-2.69-2.69H178.67a2.7,2.7,0,0,0-2.7,2.69v19.41c-.27,1.34,1.08,2.69,2.7,2.69Z" transform="translate(-6.46)"/><path class="f2a822b6-813f-44d6-a162-2270739c96be" d="M193,199.14H151.72a2.71,2.71,0,0,0-2.7,2.7v19.4a2.7,2.7,0,0,0,2.7,2.69H193a2.69,2.69,0,0,0,2.69-2.69v-19.4A2.7,2.7,0,0,0,193,199.14Z" transform="translate(-6.46)"/><path class="f2a822b6-813f-44d6-a162-2270739c96be" d="M205.34,224.2h41.23a2.7,2.7,0,0,0,2.7-2.69V202.1a2.7,2.7,0,0,0-2.7-2.69H205.34a2.7,2.7,0,0,0-2.69,2.69v19.41a2.9,2.9,0,0,0,2.69,2.69Z" transform="translate(-6.46)"/><path class="f2a822b6-813f-44d6-a162-2270739c96be" d="M166,167.34H124.77a2.7,2.7,0,0,0-2.69,2.7v19.4a2.7,2.7,0,0,0,2.69,2.7H166a2.71,2.71,0,0,0,2.7-2.7V170C169,168.69,167.62,167.34,166,167.34Z" transform="translate(-6.46)"/><path class="f2a822b6-813f-44d6-a162-2270739c96be" d="M219.9,167.34H178.67A2.71,2.71,0,0,0,176,170v19.4a2.71,2.71,0,0,0,2.7,2.7H219.9a2.7,2.7,0,0,0,2.69-2.7V170A2.7,2.7,0,0,0,219.9,167.34Z" transform="translate(-6.46)"/><path class="f2a822b6-813f-44d6-a162-2270739c96be" d="M232.29,256h14.55a2.71,2.71,0,0,0,2.7-2.7V233.9a2.7,2.7,0,0,0-2.7-2.69H232.29a2.7,2.7,0,0,0-2.69,2.69v19.4A2.9,2.9,0,0,0,232.29,256Z" transform="translate(-6.46)"/><path class="f2a822b6-813f-44d6-a162-2270739c96be" d="M232.29,192.13h14.55a2.7,2.7,0,0,0,2.7-2.69V170a2.71,2.71,0,0,0-2.7-2.7H232.29a2.7,2.7,0,0,0-2.69,2.7v19.4A2.69,2.69,0,0,0,232.29,192.13Z" transform="translate(-6.46)"/><path class="f2a822b6-813f-44d6-a162-2270739c96be" d="M128.81,137.7l5.12,7.81a2.66,2.66,0,0,0,3.78.81l34.76-22.63a2.65,2.65,0,0,0,.81-3.77l-10.51-16.17a2.66,2.66,0,0,0-3.78-.81l-16.7,10.78a17.61,17.61,0,0,1,.81,9.16,20.41,20.41,0,0,1-14.29,14.82Z" transform="translate(-6.46)"/><path class="f2a822b6-813f-44d6-a162-2270739c96be" d="M124.77,224.2h14.55a2.7,2.7,0,0,0,2.7-2.69V202.1a2.7,2.7,0,0,0-2.7-2.69H124.77a2.7,2.7,0,0,0-2.69,2.69v19.41A2.7,2.7,0,0,0,124.77,224.2Z" transform="translate(-6.46)"/><path class="f2a822b6-813f-44d6-a162-2270739c96be" d="M202.65,138.24v19.4a2.71,2.71,0,0,0,2.7,2.7h41.22a2.71,2.71,0,0,0,2.7-2.7v-19.4a2.71,2.71,0,0,0-2.7-2.7H205.34a2.7,2.7,0,0,0-2.69,2.7Z" transform="translate(-6.46)"/><path class="f2a822b6-813f-44d6-a162-2270739c96be" d="M135.82,121.53c1.08-5.93-3-11.85-8.89-13.47l-24.52-7L85.16,66c-.27-.81-1.35-2.69-4-5.39A22.11,22.11,0,0,0,49.05,62a18.22,18.22,0,0,0-3.23,6.47L31.53,125.31a14.12,14.12,0,0,0,1.08,10l24.25,45.81a4.61,4.61,0,0,1,.54,3.23L49.05,239c-1.08,7,2.7,14.28,9.7,16.44a10.47,10.47,0,0,0,4,.54,13.85,13.85,0,0,0,13.74-11.32L88.12,183a13.41,13.41,0,0,0-.54-7.27L74.38,138a6.61,6.61,0,0,1-.27-3.23L80,108.87l3.5,7.27a10.78,10.78,0,0,0,7.28,5.93L121,130.7a13.56,13.56,0,0,0,3.23.54,11.84,11.84,0,0,0,11.59-9.71Z" transform="translate(-6.46)"/><path class="f2a822b6-813f-44d6-a162-2270739c96be" d="M100,24.79A24.79,24.79,0,1,1,75.19,0,24.79,24.79,0,0,1,100,24.79" transform="translate(-6.46)"/></svg>