<?xml version="1.0" encoding="utf-8"?>
<!-- Generator: Adobe Illustrator 26.0.1, SVG Export Plug-In . SVG Version: 6.00 Build 0)  -->
<svg version="1.1" id="Capa_1" xmlns="http://www.w3.org/2000/svg" xmlns:xlink="http://www.w3.org/1999/xlink" x="0px" y="0px"
	 viewBox="0 0 700 700" style="enable-background:new 0 0 700 700;" xml:space="preserve">
<style type="text/css">
	.st0{fill:#FFFFFF;}
</style>
<g>
	<path class="st0" d="M575.5,46.9l-5.8-5.8l-41.2,37.9c-28-26.4-60.9-46.9-97.2-60.1l-1.6-3.3l-3.3,1.6C396,5.8,362.2,0,327.6,0
		c-162.2,0-294,131.8-294,294c0,69.2,23.9,132.6,64.2,182.8l-41.2,37.9l4.9,5.8c63.4,74.9,154.8,119.4,252.8,122.7v40.4h-98.8
		c-4.9,0-8.2,3.3-8.2,8.2c0,4.9,3.3,8.2,8.2,8.2h205.9c4.9,0,8.2-3.3,8.2-8.2c0-4.9-3.3-8.2-8.2-8.2h-90.6V644
		c191.1-1.6,346.7-158.1,346.7-350C677.6,200.9,641.4,112.8,575.5,46.9L575.5,46.9z M327.6,16.5c31.3,0,61.8,4.9,89.8,14.8
		c0.8,4.1,0,9.1-2.5,14c-7.4,14.8,0.8,22.2,6.6,27.2c3.3,2.5,5.8,5.8,8.2,9.9c3.3,6.6,4.9,16.5-13.2,35.4
		c-16.5,16.5-27.2,43.6-14.8,56c4.9,5.8,20.6,46.1,20.6,56.8c-12.4,10.7-23.1,4.9-45.3-10.7c-3.3-2.5-6.6-4.9-9.9-6.6
		c-10.7-6.6-17.3-17.3-23.9-28c-6.6-9.9-12.4-19.8-21.4-24.7c-12.4-5.8-25.5,6.6-42,21.4c-14,13.2-31.3,29.6-43.6,29.6
		c-15.6,0-23.1-13.2-30.5-28.8c-2.5-5.8-4.9-9.9-8.2-13.2c-8.2-8.2-26.4-33.8-27.2-38.7c0-2.5-1.6-5.8-3.3-7.4
		c-2.5-1.6-8.2-6.6-60.9,2.5C157.1,59.3,237.8,16.5,327.6,16.5L327.6,16.5z M93.7,145.8c24.7-4.9,52.7-9.1,62.6-9.1
		c5.8,14.8,27.2,41.2,30.5,44.5c0.8,0.8,3.3,5.8,4.9,8.2c6.6,14,18.9,38.7,45.3,38.7c18.9,0,37.9-18.1,55.2-33.8
		c7.4-7.4,18.9-18.1,23.9-18.9c4.9,2.5,9.9,9.9,14.8,18.1c7.4,11.5,15.6,23.9,28.8,32.9c3.3,2.5,6.6,4.1,9.1,6.6
		c12.4,9.1,27.2,18.9,42,18.9c8.2,0,17.3-3.3,25.5-12.4c11.5-11.5-16.5-72.5-22.2-78.2c-2.5-2.5,0.8-18.9,14.8-32.9
		c7.4-7.4,28.8-28.8,16.5-54.4c-3.3-7.4-8.2-11.5-12.4-14.8c-4.9-4.1-4.9-4.1-2.5-7.4c2.5-4.9,3.3-10.7,4.1-14.8
		c100.5,42,171.3,140.8,171.3,256.9c0,44.5-10.7,87.3-29.6,124.3l-47.8-13.2c-1.6-0.8-4.1,0-5.8,0.8l-28,14h-38.7l-19.8-26.4
		l-0.8-0.8l-22.2-23.1c-1.6-1.6-4.9-2.5-7.4-2.5l-29.6,7.4c-2.5,0.8-4.1,2.5-5.8,4.1c-2.5,4.9-6.6,9.9-7.4,10.7
		c-4.1,0-20.6-3.3-32.1-6.6l-20.6-27.2c-1.6-2.5-4.1-3.3-6.6-3.3c-1.6,0-18.9,0-28,9.9c-2.5,2.5-4.9,4.9-4.9,4.9h-4.1h-22.2
		c-4.9,0-8.2,3.3-8.2,8.2v37.1c0,15.6,21.4,15.6,30.5,15.6c4.1,0,20.6,3.3,32.9,6.6c5.8,5.8,10.7,12.4,10.7,14.8
		c0,1.6-1.6,4.9-2.5,7.4c-2.5,4.1-4.9,9.1-4.9,14.8c0,3.3-4.1,6.6-6.6,6.6c-3.3,0-12.4-3.3-18.9-6.6c0,0-0.8,0-0.8-0.8l-22.2-7.4
		c-2.5-0.8-4.9-0.8-7.4,0.8c-2.5,1.6-3.3,4.1-3.3,6.6v14.8c0,1.6-0.8,4.9-1.6,7.4c-1.6,6.6-3.3,14,0.8,18.9l0.8,0.8
		c-1.6,0.8-3.3,2.5-4.9,4.1c-2.5,2.5-4.9,4.9-4.9,4.9h-4.1h-7.4c-4.9,0-8.2,3.3-8.2,8.2V546C117.6,502.3,50.1,405.2,50.1,293.2
		C50.1,239.6,65.7,188.6,93.7,145.8L93.7,145.8z M270,508.1c-2.5-4.9-7.4-6.6-12.4-6.6c0-0.8,0.8-2.5,0.8-3.3
		c0.8-4.1,1.6-7.4,1.6-10.7v-3.3l10.7,3.3c4.1,1.6,17.3,8.2,25.5,8.2c11.5,0,23.1-11.5,23.1-23.1c0-1.6,1.6-4.9,2.5-7.4
		c2.5-4.1,4.9-9.1,4.9-14.8c0-9.9-12.4-23.1-17.3-28c-0.8-0.8-2.5-1.6-4.1-2.5c-4.9-1.6-31.3-7.4-39.5-7.4c-7.4,0-11.5,0-14-0.8
		v-27.2h14c9.9,0,12.4-0.8,20.6-9.9c2.5-2.5,8.2-4.1,12.4-4.9l19.8,26.4c0.8,1.6,2.5,2.5,4.9,3.3c4.9,1.6,31.3,7.4,39.5,7.4
		c9.1,0,16.5-9.9,20.6-15.6l21.4-5.8l18.9,18.9l22.2,28.8c1.6,2.5,4.1,3.3,6.6,3.3h44.5c1.6,0,2.5,0,3.3-0.8l27.2-13.2l40.4,11.5
		c-47.8,82.4-137.5,138.3-240.5,138.3c-34.6,0-67.5-6.6-97.2-18.1v-14c9.1,0,11.5-1.6,19.8-9.9l1.6-1.6c4.1,0,8.2-0.8,13.2-5.8
		C266.7,520.5,272.4,514.7,270,508.1L270,508.1z M327.6,627.5c-95.5,0-185.3-40.4-248.7-111.2l28.8-26.4
		c53.5,60.9,132.6,98.8,219.9,98.8c162.2,0,294-131.8,294-294c0-79.1-31.3-150.7-81.5-203.4L568.9,65
		c59.3,62.6,92.2,143.3,92.2,229.8C661.1,477.6,511.2,627.5,327.6,627.5L327.6,627.5z"/>
	<path class="st0" d="M151.4,387.9c0.8,0,2.5,0.8,2.5,0.8v2.5c0,12.4-6.6,25.5-6.6,26.4c-1.6,3.3-0.8,6.6,1.6,9.9
		c0.8,0.8,9.9,9.9,20.6,9.9c9.1,0,14.8-9.9,20.6-20.6c2.5-4.9,5.8-9.9,7.4-11.5c4.1-4.1,8.2-8.2,10.7-13.2
		c4.1-7.4,2.5-14.8-3.3-20.6c-4.1-4.1-14-24.7-20.6-42c-0.8-2.5-2.5-4.1-4.9-4.9l-21.4-8.2c-0.8,0-1.6-0.8-2.5-0.8H125
		c-4.1,0-7.4,2.5-8.2,6.6l-7.4,37.1c-0.8,4.1,1.6,8.2,5.8,9.9c9.9,2.5,20.6,6.6,23.9,9.1C140.7,386.2,148.9,387.9,151.4,387.9
		L151.4,387.9z M132.4,331.9h21.4l17.3,5.8c4.1,10.7,15.6,36.2,23.1,43.6l0.8,0.8c0,1.6-4.9,7.4-8.2,9.9c-4.1,4.1-6.6,9.1-9.9,15.6
		c-1.6,3.3-4.9,9.9-7.4,11.5c-0.8,0-2.5-0.8-3.3-1.6c2.5-6.6,5.8-16.5,5.8-27.2c0-14.8-10.7-17.3-15.6-18.9
		c-1.6-4.1-7.4-10.7-28-17.3L132.4,331.9z"/>
</g>
</svg>
