<svg id="a1a494a4-ccfa-40a0-8d2c-4878af403b72" data-name="Capa 1" xmlns="http://www.w3.org/2000/svg" viewBox="0 0 149.77 258"><defs><style>.bb0eba65-1d0c-415a-9876-eb804cef97fc{fill:#fff;stroke:#454545;stroke-miterlimit:10;stroke-width:2px;}</style></defs><path class="bb0eba65-1d0c-415a-9876-eb804cef97fc" d="M201.2,87.45a7.31,7.31,0,0,0-6.59-4.19H150.92l45.67-72.1A7.28,7.28,0,0,0,190.44,0h-66.6a7.23,7.23,0,0,0-6.51,4L54.89,128.91a7.26,7.26,0,0,0,6.5,10.51H99.52L54.69,245.91A7.27,7.27,0,0,0,57.62,255a7.41,7.41,0,0,0,3.77,1A7.28,7.28,0,0,0,67,253.42L200.17,95.22a7.27,7.27,0,0,0,1-7.77Z" transform="translate(-53.11 1)"/></svg>