<?xml version="1.0" encoding="utf-8"?>
<!-- Generator: Adobe Illustrator 26.0.1, SVG Export Plug-In . SVG Version: 6.00 Build 0)  -->
<svg version="1.1" id="Capa_1" xmlns="http://www.w3.org/2000/svg" xmlns:xlink="http://www.w3.org/1999/xlink" x="0px" y="0px"
	 viewBox="0 0 700 700" style="enable-background:new 0 0 700 700;" xml:space="preserve">
<style type="text/css">
	.st0{fill:#FFFFFF;}
</style>
<g>
	<path class="st0" d="M653.1,175c-8.3-14.1-20.7-25.3-37.4-33c0.1,0.6,0.1,1.3,0.1,1.8c0,9.5-2.8,18.5-7.7,25.9
		c9.2,5,16.1,11.5,20.7,19.3c17.5,30.4-1.1,83-51.4,140.7c-22.1-22.5-48.2-44.9-77.4-66.4c-3.9-36-10.4-69.6-18.6-100
		c13.9-2.8,27.4-4.8,40.3-5.9c-1.3-4.3-2-9-2-13.7c0-4.9,0.7-9.7,2.1-14.3c-15.4,1.1-31.8,3.5-48.7,6.9C445.2,53.1,400.8,0,349.8,0
		C299,0,254.5,53.1,226.5,136.6c-9.5-2-18.9-3.6-28-4.9c0.7,3.1,1,6.3,1,9.5c0,6.4-1.3,12.7-3.6,18.3c7.3,1,14.8,2.4,22.5,3.9
		c-8.4,30.4-14.7,64-18.6,99.8c-29.3,21.6-55.2,43.8-77.4,66.2C72.2,272,53.6,219.4,71.1,189c6.9-12.2,19.5-21,37.4-26.5
		c-3.2-6.4-5-13.7-5-21.3c0-2.2,0.1-4.3,0.6-6.4C77.1,142.1,58,155.5,46.8,175c-25.3,44.1-1.7,109.1,56.6,175
		c-58.2,66.1-81.9,131-56.6,175.1c17.6,30.5,55.6,46.5,108.6,46.5c12.6,0,26-0.8,40.3-2.7c9.9-1.3,20.3-3.2,30.8-5.3
		C254.7,647.1,299,700,349.9,700c51,0,95.3-52.9,123.3-136.4c16.8,3.5,33,5.9,48.4,7c-1.3-4.2-1.8-8.5-1.8-13
		c0-5.3,0.8-10.4,2.4-15.1c-13-1-26.7-2.9-40.7-5.7c8.3-30.4,14.7-64,18.6-100c29.3-21.6,55.3-43.8,77.4-66.4
		c50.3,57.7,68.7,110.3,51.4,140.7c-4.8,8.1-11.8,14.7-21.3,19.7c5.3,7.7,8.3,16.9,8.3,26.7v0.4c16.7-7.7,29.1-18.8,37.2-32.9
		c25.5-44.1,1.7-109.1-56.4-175.1C654.8,284.1,678.6,219.1,653.1,175L653.1,175z M196.7,300.9c-1,16.1-1.5,32.5-1.5,49.1
		c0,16.8,0.6,33.2,1.5,49.1c-20.9-16.2-39.3-32.8-55.3-49.1C157.3,333.8,175.8,317.2,196.7,300.9z M192.1,541.1
		c-61.5,8-105.4-3.1-121-30c-17.5-30.4,1.1-83,51.2-140.7c22.3,22.5,48.2,44.8,77.4,66.2c3.9,36.1,10.2,69.7,18.6,100.2
		C209.4,538.6,200.6,540.1,192.1,541.1L192.1,541.1z M469.1,241.9c-13.4-8.8-27.3-17.5-41.9-25.9c-14.4-8.3-29-15.8-43.4-23.1
		c24.1-9.7,47.7-17.4,70.4-23.2C460.3,191.7,465.3,215.7,469.1,241.9L469.1,241.9z M349.8,28c35.1,0,71.4,42.6,96.2,114.8
		c-30.8,8.1-63.3,19.7-96,34.2c-32.9-14.4-65.2-25.9-96.2-34C278.4,70.6,314.8,28,349.8,28L349.8,28z M245.5,169.8
		c22.7,5.9,46.2,13.7,70.1,23.2c-14.4,7.1-28.8,14.7-43.1,23c-14.6,8.4-28.4,17.1-41.9,25.9C234.5,215.9,239.5,191.8,245.5,169.8
		L245.5,169.8z M230.7,458.2c13.4,8.8,27.3,17.5,41.9,25.8c14.4,8.4,28.8,16,43.4,23.1c-24.1,9.7-47.6,17.6-70.4,23.5
		C239.5,508.6,234.5,484.4,230.7,458.2L230.7,458.2z M349.8,672c-35,0-71.3-42.4-96-114.7c31.1-8.1,63.4-19.7,96.2-34.2
		c32.8,14.4,65.2,25.9,96,34C421.2,629.6,385,672,349.8,672L349.8,672z M454.3,530.5c-22.7-5.9-46.3-13.6-70.4-23.2
		c14.6-7.3,29-14.8,43.4-23.2c14.6-8.3,28.4-16.9,41.9-25.8C465.3,484.3,460.3,508.5,454.3,530.5L454.3,530.5z M473.5,421.4
		c-18.6,13-38.6,25.9-60.2,38.4c-21,12.2-42.3,23.1-63.4,32.8c-21-9.7-42.3-20.6-63.3-32.8c-21.6-12.5-41.6-25.3-60.2-38.4
		c-2.1-22.7-3.2-46.5-3.2-71.4c0-24.8,1.1-48.6,3.2-71.3c18.6-13,38.6-25.9,60.2-38.4c21-12.2,42.1-23.1,63.3-32.8
		c21.3,9.7,42.6,20.6,63.4,32.8c21.6,12.3,41.6,25.2,60.2,38.4c2,22.5,3.2,46.3,3.2,71.3C476.7,374.9,475.4,398.7,473.5,421.4z
		 M503.1,399.3c1-16.1,1.5-32.5,1.5-49.3c0-16.7-0.6-33-1.5-49.1c20.9,16.4,39.3,32.9,55.3,49.1C542.5,366.4,524,382.9,503.1,399.3z
		"/>
	<path class="st0" d="M199.5,141.3c0,6.4-1.3,12.7-3.6,18.3c-7.3,17.4-24.4,29.7-44.4,29.7c-18.8,0-35.1-10.9-43-26.7
		c-3.2-6.4-5-13.7-5-21.3c0-2.2,0.1-4.3,0.6-6.4c3.1-23.4,23.2-41.6,47.5-41.6c23.2,0,42.7,16.5,47,38.5
		C199.2,134.8,199.5,138,199.5,141.3L199.5,141.3z"/>
	<path class="st0" d="M418.4,350c0,37.8-30.8,68.6-68.6,68.6s-68.5-30.8-68.5-68.6s30.7-68.5,68.5-68.5S418.4,312.2,418.4,350z"/>
	<path class="st0" d="M615.8,557.6v0.4c-0.3,26.3-21.7,47.6-48,47.6c-22,0-40.5-14.8-46.2-35c-1.3-4.2-1.8-8.5-1.8-13
		c0-5.3,0.8-10.4,2.4-15.1c6.4-19,24.5-32.9,45.6-32.9c16.5,0,31.2,8.4,39.8,21.3C612.9,538.6,615.8,547.8,615.8,557.6L615.8,557.6z
		"/>
	<path class="st0" d="M615.8,143.8c0,9.5-2.8,18.5-7.7,25.9c-8.5,13.3-23.4,22.1-40.3,22.1c-21.7,0-40-14.6-46.1-34.3
		c-1.3-4.3-2-9-2-13.7c0-4.9,0.7-9.7,2.1-14.3c6.2-19.5,24.4-33.7,45.9-33.7c25.9,0,47,20.6,47.9,46.2
		C615.8,142.5,615.8,143.2,615.8,143.8L615.8,143.8z"/>
</g>
</svg>
