<?xml version="1.0" encoding="utf-8"?>
<!-- Generator: Adobe Illustrator 26.0.1, SVG Export Plug-In . SVG Version: 6.00 Build 0)  -->
<svg version="1.1" id="Capa_1" xmlns="http://www.w3.org/2000/svg" xmlns:xlink="http://www.w3.org/1999/xlink" x="0px" y="0px"
	 viewBox="0 0 512 512" style="enable-background:new 0 0 512 512;" xml:space="preserve">
<style type="text/css">
	.st0{fill:#FFFFFF;}
</style>
<path class="st0" d="M512,119.5v17.1c0,4.7-3.8,8.5-8.5,8.5h-25.6v12.8c0,7.1-5.7,12.8-12.8,12.8H46.9c-7.1,0-12.8-5.7-12.8-12.8
	v-12.8H8.5c-4.7,0-8.5-3.8-8.5-8.5v-17.1c0-3.5,2.1-6.6,5.3-7.9l247.5-93.9c2.1-0.9,4.4-0.9,6.5,0l247.5,93.9
	C509.9,112.9,512,116,512,119.5z M486.4,443.7H25.6C11.5,443.7,0,455.2,0,469.3v17.1c0,4.7,3.8,8.5,8.5,8.5h494.9
	c4.7,0,8.5-3.8,8.5-8.5v-17.1C512,455.2,500.5,443.7,486.4,443.7z M85.3,187.7v204.8H46.9c-7.1,0-12.8,5.7-12.8,12.8v21.3h443.7
	v-21.3c0-7.1-5.7-12.8-12.8-12.8h-38.4V187.7h-68.3v204.8h-68.3V187.7h-68.3v204.8h-68.3V187.7H85.3z"/>
</svg>
