<svg id="b93a2a1c-28e2-4ff7-a646-70d2052c30d9" data-name="Capa 1" xmlns="http://www.w3.org/2000/svg" viewBox="0 0 256 207.68"><defs><style>.a61291a5-f488-4110-829b-f8e420fc64e6{fill:#fff;}</style></defs><path class="a61291a5-f488-4110-829b-f8e420fc64e6" d="M256,96,206.48,27,181.76,96Z" transform="translate(0 -24.16)"/><path class="a61291a5-f488-4110-829b-f8e420fc64e6" d="M202.16,24.16H130.84l46.72,68.92Z" transform="translate(0 -24.16)"/><path class="a61291a5-f488-4110-829b-f8e420fc64e6" d="M121.64,24.16H53.8L78.32,92.92Z" transform="translate(0 -24.16)"/><path class="a61291a5-f488-4110-829b-f8e420fc64e6" d="M173.56,96,126.2,26.24,82.24,96Z" transform="translate(0 -24.16)"/><path class="a61291a5-f488-4110-829b-f8e420fc64e6" d="M49.48,27,0,96H74.2Z" transform="translate(0 -24.16)"/><path class="a61291a5-f488-4110-829b-f8e420fc64e6" d="M.88,101,124.2,231.6,76,101Z" transform="translate(0 -24.16)"/><path class="a61291a5-f488-4110-829b-f8e420fc64e6" d="M81.24,101,128,231.84,174.72,101Z" transform="translate(0 -24.16)"/><path class="a61291a5-f488-4110-829b-f8e420fc64e6" d="M131.76,231.6,255.12,101H180Z" transform="translate(0 -24.16)"/></svg>