<svg id="e5a4063a-9fe6-4590-bf65-6d3ff2a552bd" data-name="Capa 1" xmlns="http://www.w3.org/2000/svg" viewBox="0 0 244.95 256"><defs><style>.b98c8466-a494-4766-966b-535b7078d1fa{fill:#fff;}</style></defs><path class="b98c8466-a494-4766-966b-535b7078d1fa" d="M104.16,0,80.32,41.27l23.84,41.26H151.8l23.82-41.26L151.8,0Zm2.7,4.7h42.22L170.2,41.26,149.08,77.83H106.86L85.75,41.26ZM29.35,45.32,5.52,86.59l23.83,41.27H77l23.83-41.27L77,45.32ZM32.06,50H74.29L95.4,86.59,74.29,123.16H32.06L11,86.59ZM105.79,86.2,82,127.47l23.82,41.27h47.65l23.82-41.27L153.44,86.2Zm2.71,4.7h42.23l21.11,36.57L150.73,164H108.5L87.39,127.47ZM179,130.45l-23.84,41.27L179,213h47.64l23.83-41.27-23.83-41.27Zm2.7,4.7h42.22l21.12,36.57-21.12,36.57H181.71L160.6,171.72Zm-78,38.31L79.9,214.73,103.73,256h47.64l23.83-41.27-23.83-41.27Zm2.71,4.71h42.22l21.11,36.56L148.66,251.3H106.44L85.33,214.73Z" transform="translate(-5.52)"/></svg>