<?xml version="1.0" encoding="utf-8"?>
<!-- Generator: Adobe Illustrator 26.0.1, SVG Export Plug-In . SVG Version: 6.00 Build 0)  -->
<svg version="1.1" id="Capa_1" xmlns="http://www.w3.org/2000/svg" xmlns:xlink="http://www.w3.org/1999/xlink" x="0px" y="0px"
	 viewBox="0 0 448 512" style="enable-background:new 0 0 448 512;" xml:space="preserve">
<style type="text/css">
	.st0{fill:#FFFFFF;}
</style>
<path class="st0" d="M383.9,308.3l23.9-62.6c4-10.5-3.7-21.7-15-21.7h-58.5c11-18.9,17.8-40.6,17.8-64v-0.3
	c39.2-7.8,64-19.1,64-31.7c0-13.3-27.3-25.1-70.1-33c-9.2-32.8-27-65.8-40.6-82.8c-9.5-11.9-25.9-15.6-39.5-8.8l-27.6,13.8
	c-9,4.5-19.6,4.5-28.6,0L182.1,3.4c-13.6-6.8-30-3.1-39.5,8.8c-13.5,17-31.4,50-40.6,82.8c-42.7,7.9-70,19.7-70,33
	c0,12.6,24.8,23.9,64,31.7v0.3c0,23.4,6.8,45.1,17.8,64H56.3c-11.5,0-19.2,11.7-14.7,22.3l25.8,60.2C27.3,329.8,0,372.7,0,422.4
	v44.8C0,491.9,20.1,512,44.8,512h358.4c24.7,0,44.8-20.1,44.8-44.8v-44.8C448,374,422.2,332,383.9,308.3L383.9,308.3z M176,480
	l-41.6-192l49.6,32l24,40L176,480z M272,480l-32-120l24-40l49.6-32L272,480z M313.7,181.5c-3.9,11.9-7,24.6-16.5,33.4
	c-10.1,9.3-48,22.4-64-25c-2.8-8.4-15.4-8.4-18.3,0c-17,50.2-56,32.4-64,25c-9.5-8.8-12.7-21.5-16.5-33.4c-0.8-2.5-6.3-5.7-6.3-5.8
	v-10.8c28.3,3.6,61,5.8,96,5.8s67.7-2.1,96-5.8v10.8C320,175.8,314.5,178.9,313.7,181.5z"/>
</svg>
