<svg id="a8bc1cde-5125-4f74-a4a0-690db318c5c2" data-name="Capa 1" xmlns="http://www.w3.org/2000/svg" viewBox="0 0 248.16 256"><defs><style>.bf281ecf-631f-47a1-bf13-0703f557f78d{fill:#fff;}.bac9aac0-9026-4ab6-8579-04c211ef13d7{fill:#807f78;}</style></defs><path class="bf281ecf-631f-47a1-bf13-0703f557f78d" d="M233.7,118.34l11.49-35.08L208,35.68l-34.39-31L120.22,7.56,76.67,0l-31,43.93,1.19,35.93L14.6,110.31,1.77,174.83,33.2,251.69,84,238l45.63,18,46-12.71,45.6-1.23,8.69-38.46,20-51.62Z" transform="translate(-1.77)"/><polygon class="bac9aac0-9026-4ab6-8579-04c211ef13d7" points="77.72 8.64 120.94 14.65 144.95 44.05 98.72 62.67 53.1 47.06 77.72 8.64"/><polygon class="bac9aac0-9026-4ab6-8579-04c211ef13d7" points="71.72 194.14 14.09 173.13 24.29 150.51 58.51 155.12 135.35 161.13 71.72 194.14"/><polygon class="bac9aac0-9026-4ab6-8579-04c211ef13d7" points="163.56 117.9 90.33 134.11 21.29 113.1 53.11 83.69 80.13 97.49 126.95 104.09 168.36 83.69 163.56 117.9"/></svg>