<?xml version="1.0" encoding="utf-8"?>
<!-- Generator: Adobe Illustrator 26.0.1, SVG Export Plug-In . SVG Version: 6.00 Build 0)  -->
<svg version="1.1" id="Capa_1" xmlns="http://www.w3.org/2000/svg" xmlns:xlink="http://www.w3.org/1999/xlink" x="0px" y="0px"
	 viewBox="0 0 700 700" style="enable-background:new 0 0 700 700;" xml:space="preserve">
<style type="text/css">
	.st0{fill:#FFFFFF;}
</style>
<g>
	<path class="st0" d="M389.3,562h161v23h-161V562z"/>
	<path class="st0" d="M389.3,608h161v23h-161V608z"/>
	<path class="st0" d="M684.8,378.7L469.8,153l-214,224.7l18.2,18.2l195.8-207.3l200.5,212.3h4.9c7.3,0,13.2-5.9,13.2-13.1
		C688.4,384.4,687.1,381.2,684.8,378.7L684.8,378.7z"/>
	<path class="st0" d="M113.2,585h138v23h-138V585z"/>
	<path class="st0" d="M389.3,654h161v23h-161V654z"/>
	<path class="st0" d="M67.2,509.2v6.7h230.1v-6.7l-115-115L67.2,509.2z M205.2,458.4c0,12.7-10.3,23-23,23s-23-10.3-23-23
		c0-12.7,10.3-23,23-23S205.2,445.7,205.2,458.4z"/>
	<path class="st0" d="M335.1,514.6c2.8,2.7,8.1,0.5,8.1-3.4v-8.7c0-3-1.2-6-3.4-8.1L182.2,336.7L24.6,494.3
		c-2.1,2.2-3.4,5.1-3.4,8.1v8.7c0,3.9,5.4,6.1,8.1,3.4l152.9-152.9L335.1,514.6z"/>
	<path class="st0" d="M113.2,631h138v23h-138V631z"/>
	<path class="st0" d="M113.2,677h138v23h-138V677z"/>
	<path class="st0" d="M301,400.9h337.7L469.8,222.1L301,400.9z M458.3,366.4h-34.5v-46h34.5V366.4z M481.3,320.4h34.5v46h-34.5
		V320.4z"/>
	<path class="st0" d="M354.8,476.7v-18.2h46v46h-34.5v6.7c0,15.3-12.5,27.8-27.8,27.8c-6.7,0-13.2-2.6-18.2-7v145h46V539h207.1v138
		h46V423.9H302L354.8,476.7z M538.8,458.4h46v46h-46V458.4z M446.8,458.4h46v46h-46V458.4z"/>
	<path class="st0" d="M67.2,700h23V562h184.1v138h23V539H67.2V700z"/>
	<path class="st0" d="M170.3,296.2c12.7-8.4,20.9-21.8,23-36.6c17.5,12.6,30,30.9,35.3,52.1l22.3-5.6c-8.1-32.5-30-59.7-59.9-74.7
		l-20.2-10.1v31.1c0,9.9-4.9,19.2-13.2,24.7c-13.3,8.9-21.3,23.8-21.3,39.8c0,9.3,2.7,18.1,7.6,25.7l17-17c-1-2.7-1.6-5.6-1.6-8.7
		C159.2,308.5,163.4,300.8,170.3,296.2L170.3,296.2z"/>
	<path class="st0" d="M57.8,397l3,2l12.8-19.1l-3-2c-16.5-11-26.4-29.5-26.4-49.4c0-10.8,2.9-21.3,8.5-30.5
		c13.5-22.5,19.5-48.1,17.7-73.7c7.1,3.8,14.1,8.5,20,14c0.2,10.9,2.9,21.7,7.7,31.5l4.9,9.8l20.6-10.3l-4.9-9.8
		c-3.5-7-5.4-14.9-5.4-22.8c0-16,7.6-31.2,20.4-40.8c12.1-9.1,21.8-20.8,28.4-34.3c5.7,9.8,8.7,20.9,8.7,32.3h23
		c0-17.3-5.1-34.1-14.7-48.5l-23.3-34.9l-10.6,31.9c-2.9,8.6-7.4,16.4-13.2,23.3c-11.7-8.2-18.7-21.6-18.7-36
		c0-13.8,6.6-27,17.6-35.2l2.8-2.1c12.1-9.1,21.8-20.8,28.4-34.3c5.7,9.8,8.7,20.9,8.7,32.3h23c0-17.3-5.1-34.1-14.7-48.5L155.8,6.9
		l-10.6,31.9c-4.7,14.1-13.4,26.2-25.3,35.1l-2.8,2.1c-16.8,12.6-26.8,32.7-26.8,53.7c0,20.3,9.2,39.2,24.7,51.9
		c-9.4,8.4-16.4,19-20.5,30.8C84,205,71.9,198.7,59.3,194.5l-19.9-6.6l5.1,20.3c6.7,26.7,2.6,54.4-11.6,78
		c-7.7,12.8-11.7,27.4-11.7,42.3C21.2,356.1,34.9,381.7,57.8,397L57.8,397z"/>
	<path class="st0" d="M266.1,277.7l16.3,16.3l13.2-13.2c8.5-8.5,13.2-19.8,13.2-31.8c0-17.1-9.5-32.5-24.8-40.2l-9-4.5
		c-7.5-3.7-12.1-11.3-12.1-19.6c0-5.9,2.3-11.4,6.4-15.5l13.2-13.2l-16.3-16.3l-13.2,13.2c-8.5,8.5-13.2,19.8-13.2,31.8
		c0,17.1,9.5,32.5,24.8,40.2l9,4.5c7.5,3.7,12.1,11.3,12.1,19.6c0,5.9-2.3,11.4-6.4,15.5L266.1,277.7z"/>
	<path class="st0" d="M384.4,209.7c-4.1-5.2-6.6-11.7-6.6-18.5v-3.1c0-8,3.1-15.6,8.8-21.3c16.6-16.6,23.4-41.1,17.7-63.9l-0.1-0.6
		c21.2,2.6,40,14.4,51.5,32.5l16.2-17c-6.8-9.4-15.1-17.3-24.5-23.5c1.4-19.1,7.9-37.3,19.4-52.5c10.3,16.9,26.4,29.9,45.4,36.3
		l1.6,0.5c15,5,25,18.9,25,34.7c0,5.6-1.3,11.3-3.9,16.4l-6.4,12.8l20.6,10.3l6.4-12.8c4.1-8.3,6.3-17.5,6.3-26.7
		c0-25.7-16.4-48.4-40.8-56.5l-1.6-0.5c-18.2-6.1-32.7-20.6-38.7-38.7L474.8,0l-15.1,15.2c-18.8,18.8-30.6,42.7-34.5,68.6
		c-9.5-3.1-19.5-5-29.9-5h-20.8l7.4,29.7c3.7,15-0.7,31.1-11.6,42c-10,10-15.6,23.4-15.6,37.6v3.1c0,13.2,4.9,25.8,13.5,35.4
		L384.4,209.7z"/>
	<path class="st0" d="M635.1,165.6c-5.7-6.9-10.3-14.7-13.2-23.3l-10.6-31.9L588,145.3c-9.6,14.4-14.7,31.2-14.7,48.5h23
		c0-11.4,3-22.5,8.7-32.3c6.6,13.5,16.3,25.2,28.4,34.3c12.8,9.6,20.4,24.8,20.4,40.8c0,7.9-1.9,15.8-5.4,22.8l-4.9,9.8l20.6,10.3
		l4.9-9.8c5.1-10.2,7.8-21.7,7.8-33.1c0-21-9.2-41.1-24.7-55.1c15.5-12.7,24.7-31.6,24.7-51.9c0-21-10-41.1-26.8-53.7l-2.8-2.1
		C635.4,65,626.7,52.8,622,38.8L611.3,6.9L588,41.8c-9.6,14.4-14.7,31.2-14.7,48.5h23c0-11.4,3-22.5,8.7-32.3
		c6.6,13.5,16.3,25.2,28.4,34.3l2.8,2.1c11,8.3,17.6,21.5,17.6,35.3C653.9,144,646.9,157.3,635.1,165.6L635.1,165.6z"/>
	<path class="st0" d="M253.2,101.8l1.7-0.6c19-6.3,35.1-19.4,45.4-36.3c13,17.2,20,38,20,59.9h23c0-32.7-12.7-63.5-35.9-86.7
		L292.3,23l-5.9,17.7c-6.1,18.2-20.5,32.7-38.8,38.7l-1.7,0.6c-24.3,8.1-40.6,30.7-40.6,56.3h23
		C228.3,120.7,238.3,106.8,253.2,101.8L253.2,101.8z"/>
</g>
</svg>
