<?xml version="1.0" encoding="utf-8"?>
<!-- Generator: Adobe Illustrator 26.0.1, SVG Export Plug-In . SVG Version: 6.00 Build 0)  -->
<svg version="1.1" id="Capa_1" xmlns="http://www.w3.org/2000/svg" xmlns:xlink="http://www.w3.org/1999/xlink" x="0px" y="0px"
	 viewBox="0 0 700 700" style="enable-background:new 0 0 700 700;" xml:space="preserve">
<style type="text/css">
	.st0{fill:#FFFFFF;}
</style>
<g>
	<path class="st0" d="M695.9,647.1c-89.1-89.1-206.6-139.5-332.1-143v-280h209.7c5.2,0,9.9-2.8,12.3-7.4c2.4-4.5,2.2-10.1-0.7-14.3
		l-50.8-76.1l50.8-76.1c2.9-4.3,3.1-9.8,0.7-14.3c-2.4-4.5-7.2-7.4-12.3-7.4H349.8c-7.7,0-14,6.3-14,14v461.7
		C210.4,507.6,92.9,558,3.8,647.1c-5.4,5.4-4.9,14.8,0.5,20.3c2.6,2.7,6.2,4.2,10,4.2h671.1c3.7,0,7.9-2.1,10.5-4.7
		C701.4,661.4,701.4,652.6,695.9,647.1L695.9,647.1z"/>
</g>
</svg>
