<?xml version="1.0" encoding="utf-8"?>
<!-- Generator: Adobe Illustrator 26.0.1, SVG Export Plug-In . SVG Version: 6.00 Build 0)  -->
<svg version="1.1" id="Capa_1" xmlns="http://www.w3.org/2000/svg" xmlns:xlink="http://www.w3.org/1999/xlink" x="0px" y="0px"
	 viewBox="0 0 700 700" style="enable-background:new 0 0 700 700;" xml:space="preserve">
<style type="text/css">
	.st0{fill:#FFFFFF;}
</style>
<g>
	<g>
		<path class="st0" d="M691.1,5.5c1.5,1.5,2.5,3.4,3,5.3c-0.9-4.6-4.7-7.9-9.2-8.5C687.1,2.7,689.3,3.7,691.1,5.5z"/>
		<path class="st0" d="M691.5,20.5L292.3,419.7c-3.6,3.7-9.6,3.8-13.8,0.6l54.7,54.7l340.5-340.5c1.6-1.5,2.7-3.7,3.1-6.1
			l17.1-111.9C693.4,18,692.6,19.4,691.5,20.5z"/>
		<path class="st0" d="M276.8,404.3L676.1,5.1c1.2-1.2,2.6-2,4.1-2.5L568.5,19.7c-2.3,0.3-4.6,1.4-6.4,3.1L221.5,363.4l54.7,54.7
			C273,414,273.1,408.1,276.8,404.3z"/>
	</g>
	<path class="st0" d="M184.7,342.2L354.6,512c6.7,6.7,10,15.4,10,24c0,8.7-3.3,17.4-10,24c-6.7,6.7-15.4,10-24,10
		c-8.7,0-17.4-3.3-24-10L136.7,390.2c-6.7-6.7-10-15.4-10-24c0-8.6,3.3-17.2,9.7-23.9c0.1-0.1,0.3-0.3,0.5-0.5
		c6.5-6.4,15.3-9.7,23.9-9.7c8.7,0,17.4,3.3,24,10L184.7,342.2z"/>
	<path class="st0" d="M184.6,458.7l57.1,57.1c4.2,4.2,4.2,11.2,0,15.4l-20,20L149,478.6l20.4-20.4l-0.4,0.4c4.2-4.2,11.2-4.2,15.4,0
		L184.6,458.7z M206.2,566.8l-44.7,44.7c1,10.9-0.1,21.8-3.5,32.3c-3.8,11.9-10.5,23.2-19.8,32.4C122.4,692.1,101.7,700,81,700
		s-41.4-7.9-57.3-23.7S0,639.8,0,619c0-20.7,7.9-41.4,23.7-57.3c9.5-9.5,20.9-16.2,33-20c10.6-3.4,21.8-4.5,32.9-3.3l44.3-44.3
		l72.6,72.6L206.2,566.8z"/>
</g>
</svg>
