<?xml version="1.0" encoding="utf-8"?>
<!-- Generator: Adobe Illustrator 26.0.1, SVG Export Plug-In . SVG Version: 6.00 Build 0)  -->
<svg version="1.1" id="Capa_1" xmlns="http://www.w3.org/2000/svg" xmlns:xlink="http://www.w3.org/1999/xlink" x="0px" y="0px"
	 viewBox="0 0 700 700" style="enable-background:new 0 0 700 700;" xml:space="preserve">
<style type="text/css">
	.st0{fill-rule:evenodd;clip-rule:evenodd;fill:#FFFFFF;}
</style>
<g>
	<path class="st0" d="M349.3,96.3c-166.6,0-301.9,135.3-301.9,301.9C47.5,564.7,182.7,700,349.3,700s301.9-135.3,301.9-301.9
		C651.2,231.5,515.9,96.3,349.3,96.3L349.3,96.3z M349.3,145.2c139.6,0,252.9,113.3,252.9,252.9S488.9,651,349.3,651
		S96.4,537.7,96.4,398.1S209.7,145.2,349.3,145.2L349.3,145.2z"/>
	<path class="st0" d="M373.8,120.7V24.5c0-13.5-11-24.5-24.5-24.5c-13.5,0-24.5,11-24.5,24.5v96.3c0,13.5,11,24.5,24.5,24.5
		C362.8,145.2,373.8,134.3,373.8,120.7z"/>
	<path class="st0" d="M159.3,189.1L91.2,121c-9.6-9.6-25.1-9.6-34.6,0c-9.5,9.6-9.5,25.1,0,34.6l68.1,68.1c9.6,9.5,25.1,9.5,34.6,0
		C168.8,214.1,168.8,198.6,159.3,189.1z"/>
	<path class="st0" d="M578.7,221.3l68.1-68.1c9.6-9.5,9.6-25.1,0-34.6c-9.5-9.6-25.1-9.6-34.6,0l-68.1,68.1
		c-9.6,9.5-9.6,25.1,0,34.6C553.7,230.8,569.2,230.8,578.7,221.3z"/>
	<path class="st0" d="M300.4,49h97.9c13.5,0,24.5-11,24.5-24.5S411.8,0,398.3,0h-97.9c-13.5,0-24.5,11-24.5,24.5S286.9,49,300.4,49z
		"/>
	<path class="st0" d="M56.6,190.2l69.2-69.2c9.5-9.6,9.5-25.1,0-34.6c-9.6-9.5-25.1-9.5-34.6,0L22,155.6c-9.6,9.5-9.6,25.1,0,34.6
		C31.5,199.7,47.1,199.7,56.6,190.2L56.6,190.2z"/>
	<path class="st0" d="M681.4,153.2L612.2,84c-9.6-9.6-25.1-9.6-34.6,0c-9.6,9.6-9.6,25.1,0,34.6l69.2,69.2c9.6,9.6,25.1,9.6,34.6,0
		C691,178.2,691,162.7,681.4,153.2z"/>
	<path class="st0" d="M308.5,251.3v163.2c0,13.5,11,24.5,24.5,24.5h130.5c13.5,0,24.5-11,24.5-24.5c0-13.5-11-24.5-24.5-24.5H357.5
		V251.3c0-13.5-11-24.5-24.5-24.5C319.5,226.8,308.5,237.8,308.5,251.3L308.5,251.3z"/>
</g>
</svg>
