<svg xmlns="http://www.w3.org/2000/svg" viewBox="0 0 645.75 435.77"><defs><style>.b0579fba-4958-4b01-9485-e2ce9b97ba54{fill:#fff;}</style></defs><g id="b4dac4ae-3f4b-442e-a31d-65916b2079c8" data-name="Capa 2"><g id="ac877e97-69bb-42e2-a29d-58daf6df616c" data-name="Capa 1"><path class="b0579fba-4958-4b01-9485-e2ce9b97ba54" d="M540.6,222.4c0-1.51.1-3,.1-4.51C540.7,97.73,443,0,322.82,0a216,216,0,0,0-150,60c-37.76-8.7-70.49-13.26-97-13.26-39.35,0-63.76,10-72.54,29.83-18.46,41.57,43.46,96.35,101.48,136.5v.14l.23.15c0,1.51-.09,3-.09,4.51,0,120.16,97.73,217.88,217.89,217.88a215.38,215.38,0,0,0,149.74-60l.45.11.12-.12C510.8,384.41,543.49,389,570,389c39.3,0,63.69-10,72.47-29.8,18.42-41.5-43.74-96.48-101.84-136.79ZM27.72,87.41c3.88-8.74,21.87-14,48.13-14,20.72,0,46.72,3.16,76.08,9.21-3.15,4-6.12,8.08-9,12.26-.65,1-1.24,1.94-1.87,2.9-2.7,4.08-5.24,8.24-7.66,12.48-.69,1.23-1.4,2.46-2.07,3.7a219,219,0,0,0-14.31,32.39c-.42,1.21-.82,2.43-1.22,3.65q-2.44,7.41-4.36,15c-.19.78-.43,1.55-.61,2.33-1.2,5-2.26,10-3.1,15.12-63.36-46.07-86.26-81.08-80-95.07ZM618,348.35C611.09,364,560.2,366.79,493.66,353c3.18-4,6.16-8.13,9-12.33.66-1,1.27-2,1.92-3q4.13-6.25,7.81-12.76c.6-1.06,1.21-2.12,1.79-3.19a218.36,218.36,0,0,0,14.69-33.34c.25-.74.48-1.47.73-2.2,1.91-5.76,3.63-11.58,5-17.48,0,0,0-.08,0-.13,1.22-5.09,2.31-10.22,3.16-15.41,63.39,46.2,86.34,81.22,80.16,95.15Z"/></g></g></svg>