<svg xmlns="http://www.w3.org/2000/svg" viewBox="0 0 379.5 520.05"><defs><style>.f6fe8aa4-2246-45fc-b4fe-66876184cb9d{fill:#fff;}</style></defs><g id="b8099f90-27ec-444a-8e9e-afebbc42685c" data-name="Capa 2"><g id="a162453b-0e03-4f75-8f2b-d8f1d884720a" data-name="Capa 1"><path class="f6fe8aa4-2246-45fc-b4fe-66876184cb9d" d="M192.91,389.84a40.38,40.38,0,0,0-11.41,0c-15.4,2.16-27.68,13.68-31.34,29.41a40.75,40.75,0,0,0,2.47,26.49l34.46,74.31,34.36-74.31A40.91,40.91,0,0,0,224,419.25c-3.66-15.73-15.93-27.25-31.12-29.41Z"/><path class="f6fe8aa4-2246-45fc-b4fe-66876184cb9d" d="M311.67,311a870.11,870.11,0,0,1-14.52,94.84l82.35,27.44Z"/><path class="f6fe8aa4-2246-45fc-b4fe-66876184cb9d" d="M0,433.25l81.44-27.14a821.52,821.52,0,0,1-14.1-94.26Z"/><path class="f6fe8aa4-2246-45fc-b4fe-66876184cb9d" d="M199.8,3.34,194.42,0l-5.6,3.12c-6.36,3.67-156.8,94.13-81.53,421l1.83,8.4h18.6a61.91,61.91,0,0,1,1.51-18.35c5.64-24.23,25-42.22,49.28-45.62a59.91,59.91,0,0,1,8.65-.61,62.47,62.47,0,0,1,8.78.62C220.05,372,239.3,389.94,245,414.35a60.12,60.12,0,0,1,1.43,18.14h22.93l1.83-8.39C346.48,97.47,205.83,7,199.8,3.35Zm37,166.71A47.06,47.06,0,1,1,189.78,123,47.11,47.11,0,0,1,236.84,170.05Z"/></g></g></svg>