<svg xmlns="http://www.w3.org/2000/svg" viewBox="0 0 506.17 510.67"><defs><style>.ec8425e0-74c1-413f-b0bf-c5f6535d620b{fill:#fff;}</style></defs><g id="b975b98e-dffd-4fc1-bdfc-0ec7767d299d" data-name="Capa 2"><g id="fa8748fa-860a-48bc-9993-d32c61ee590d" data-name="Capa 1"><path class="ec8425e0-74c1-413f-b0bf-c5f6535d620b" d="M504,246.9a13.3,13.3,0,0,0-2.92-3.88l-.2-.17-.28-.27L289.08,47.75l-.3.31c-12-12.09-25.36-18.88-39.52-18.88H102l14-13.9L100.78,0,71.43,29.18H0V50.72H71.43L100.78,79.9,116,64.62l-14-13.9H207.32C175.58,85.08,153.71,157.61,152,244.57h-39.2L83.47,215.39,68.28,230.67l14,13.9H0V266.1H82.26l-14,13.9,15.19,15.28,29.36-29.18H152c1.69,87,23.56,159.48,55.3,193.85h-62l14-13.89-15.19-15.29L114.77,460H0v21.54H114.77l29.36,29.18,15.19-15.28-14-13.9H249.26c14.15,0,27.49-6.79,39.52-18.88l.3.31,211.5-194.84A17.3,17.3,0,0,0,504,246.9ZM324.24,109.41l146.7,135.15H427.11l-29.36-29.18-15.19,15.28,14,13.9H346.5c-1-51.8-9.1-98.57-22.27-135.15Zm0,291.84c13.16-36.58,21.25-83.35,22.26-135.15h50.05l-14,13.9,15.19,15.28,29.36-29.18H471Z"/></g></g></svg>